<?xml version="1.0" encoding="UTF-8" standalone="no"?>
<!DOCTYPE svg PUBLIC "-//W3C//DTD SVG 1.1//EN"
 "http://www.w3.org/Graphics/SVG/1.1/DTD/svg11.dtd">
<!-- Generated by graphviz version 2.40.1 (20161225.0304)
 -->
<!-- Title: dependencies Pages: 1 -->
<svg width="697pt" height="211pt"
 viewBox="0.00 0.00 697.00 211.00" xmlns="http://www.w3.org/2000/svg" xmlns:xlink="http://www.w3.org/1999/xlink">
<g id="graph0" class="graph" transform="scale(1 1) rotate(0) translate(4 207)">
<title>dependencies</title>
<polygon fill="#ffffff" stroke="transparent" points="-4,4 -4,-207 693,-207 693,4 -4,4"/>
<text text-anchor="start" x="323.5091" y="-42.4" font-family="sans-serif" font-weight="bold" font-size="14.00" fill="#000000">Legend</text>
<polygon fill="#ffffb3" stroke="transparent" points="110.5,-10 110.5,-30 130.5,-30 130.5,-10 110.5,-10"/>
<text text-anchor="start" x="134.129" y="-15.4" font-family="sans-serif" font-size="14.00" fill="#000000"> &#160;Declarations</text>
<polygon fill="#8dd3c7" stroke="transparent" points="223.5,-10 223.5,-30 243.5,-30 243.5,-10 223.5,-10"/>
<text text-anchor="start" x="247.2251" y="-15.4" font-family="sans-serif" font-size="14.00" fill="#000000"> &#160;Module</text>
<polygon fill="#80b1d3" stroke="transparent" points="309.5,-10 309.5,-30 329.5,-30 329.5,-10 309.5,-10"/>
<text text-anchor="start" x="333.2812" y="-15.4" font-family="sans-serif" font-size="14.00" fill="#000000"> &#160;Bootstrap</text>
<polygon fill="#fdb462" stroke="transparent" points="406.5,-10 406.5,-30 426.5,-30 426.5,-10 406.5,-10"/>
<text text-anchor="start" x="430.1732" y="-15.4" font-family="sans-serif" font-size="14.00" fill="#000000"> &#160;Providers</text>
<polygon fill="#fb8072" stroke="transparent" points="502.5,-10 502.5,-30 522.5,-30 522.5,-10 502.5,-10"/>
<text text-anchor="start" x="526.2258" y="-15.4" font-family="sans-serif" font-size="14.00" fill="#000000"> &#160;Exports</text>
<g id="clust1" class="cluster">
<title>cluster_CantinePageModule</title>
<polygon fill="none" stroke="#000000" stroke-dasharray="1,5" points="8,-70 8,-195 681,-195 681,-70 8,-70"/>
</g>
<g id="clust2" class="cluster">
<title>cluster_CantinePageModule_declarations</title>
<polygon fill="none" stroke="#000000" points="571,-78 571,-130 673,-130 673,-78 571,-78"/>
</g>
<g id="clust4" class="cluster">
<title>cluster_CantinePageModule_imports</title>
<polygon fill="none" stroke="#000000" points="16,-78 16,-130 563,-130 563,-78 16,-78"/>
</g>
<!-- CantinePage -->
<g id="node1" class="node">
<title>CantinePage</title>
<polygon fill="#ffffb3" stroke="#000000" points="665.2591,-122 578.7409,-122 578.7409,-86 665.2591,-86 665.2591,-122"/>
<text text-anchor="middle" x="622" y="-99.8" font-family="Times,serif" font-size="14.00" fill="#000000">CantinePage</text>
</g>
<!-- CantinePageModule -->
<g id="node2" class="node">
<title>CantinePageModule</title>
<polygon fill="#8dd3c7" stroke="#000000" points="443.309,-187 440.309,-191 419.309,-191 416.309,-187 312.691,-187 312.691,-151 443.309,-151 443.309,-187"/>
<text text-anchor="middle" x="378" y="-164.8" font-family="Times,serif" font-size="14.00" fill="#000000">CantinePageModule</text>
</g>
<!-- CantinePage&#45;&gt;CantinePageModule -->
<g id="edge1" class="edge">
<title>CantinePage&#45;&gt;CantinePageModule</title>
<path fill="none" stroke="#000000" d="M622,-122.1061C622,-141.3391 622,-169 622,-169 622,-169 453.3875,-169 453.3875,-169"/>
<polygon fill="#000000" stroke="#000000" points="453.3876,-165.5001 443.3875,-169 453.3875,-172.5001 453.3876,-165.5001"/>
</g>
<!-- CommonModule -->
<g id="node3" class="node">
<title>CommonModule</title>
<polygon fill="#8dd3c7" stroke="#000000" points="554.6681,-122 551.6681,-126 530.6681,-126 527.6681,-122 443.3319,-122 443.3319,-86 554.6681,-86 554.6681,-122"/>
<text text-anchor="middle" x="499" y="-99.8" font-family="Times,serif" font-size="14.00" fill="#000000">CommonModule</text>
</g>
<!-- CommonModule&#45;&gt;CantinePageModule -->
<g id="edge2" class="edge">
<title>CommonModule&#45;&gt;CantinePageModule</title>
<path fill="none" stroke="#000000" d="M443.1202,-104C437.84,-104 434.4092,-104 434.4092,-104 434.4092,-104 434.4092,-140.8939 434.4092,-140.8939"/>
<polygon fill="#000000" stroke="#000000" points="430.9093,-140.8938 434.4092,-150.8939 437.9093,-140.8939 430.9093,-140.8938"/>
</g>
<!-- FormsModule -->
<g id="node4" class="node">
<title>FormsModule</title>
<polygon fill="#8dd3c7" stroke="#000000" points="425.8288,-122 422.8288,-126 401.8288,-126 398.8288,-122 330.1712,-122 330.1712,-86 425.8288,-86 425.8288,-122"/>
<text text-anchor="middle" x="378" y="-99.8" font-family="Times,serif" font-size="14.00" fill="#000000">FormsModule</text>
</g>
<!-- FormsModule&#45;&gt;CantinePageModule -->
<g id="edge3" class="edge">
<title>FormsModule&#45;&gt;CantinePageModule</title>
<path fill="none" stroke="#000000" d="M378,-122.1061C378,-122.1061 378,-140.991 378,-140.991"/>
<polygon fill="#000000" stroke="#000000" points="374.5001,-140.9909 378,-150.991 381.5001,-140.991 374.5001,-140.9909"/>
</g>
<!-- IonicModule -->
<g id="node5" class="node">
<title>IonicModule</title>
<polygon fill="#8dd3c7" stroke="#000000" points="312.3162,-122 309.3162,-126 288.3162,-126 285.3162,-122 223.6838,-122 223.6838,-86 312.3162,-86 312.3162,-122"/>
<text text-anchor="middle" x="268" y="-99.8" font-family="Times,serif" font-size="14.00" fill="#000000">IonicModule</text>
</g>
<!-- IonicModule&#45;&gt;CantinePageModule -->
<g id="edge4" class="edge">
<title>IonicModule&#45;&gt;CantinePageModule</title>
<path fill="none" stroke="#000000" d="M312.256,-104C317.8096,-104 321.5908,-104 321.5908,-104 321.5908,-104 321.5908,-140.8939 321.5908,-140.8939"/>
<polygon fill="#000000" stroke="#000000" points="318.0909,-140.8938 321.5908,-150.8939 325.0909,-140.8939 318.0909,-140.8938"/>
</g>
<!-- RouterModule.forChild(args) -->
<g id="node6" class="node">
<title>RouterModule.forChild(args)</title>
<polygon fill="#8dd3c7" stroke="#000000" points="205.7323,-122 202.7323,-126 181.7323,-126 178.7323,-122 24.2677,-122 24.2677,-86 205.7323,-86 205.7323,-122"/>
<text text-anchor="middle" x="115" y="-99.8" font-family="Times,serif" font-size="14.00" fill="#000000">RouterModule.forChild(args)</text>
</g>
<!-- RouterModule.forChild(args)&#45;&gt;CantinePageModule -->
<g id="edge5" class="edge">
<title>RouterModule.forChild(args)&#45;&gt;CantinePageModule</title>
<path fill="none" stroke="#000000" d="M115,-122.1061C115,-141.3391 115,-169 115,-169 115,-169 302.6508,-169 302.6508,-169"/>
<polygon fill="#000000" stroke="#000000" points="302.6509,-172.5001 312.6508,-169 302.6508,-165.5001 302.6509,-172.5001"/>
</g>
</g>
</svg>
