<?xml version="1.0" encoding="UTF-8" standalone="no"?>
<!DOCTYPE svg PUBLIC "-//W3C//DTD SVG 1.1//EN"
 "http://www.w3.org/Graphics/SVG/1.1/DTD/svg11.dtd">
<!-- Generated by graphviz version 2.40.1 (20161225.0304)
 -->
<!-- Title: dependencies Pages: 1 -->
<svg width="851pt" height="211pt"
 viewBox="0.00 0.00 851.00 211.00" xmlns="http://www.w3.org/2000/svg" xmlns:xlink="http://www.w3.org/1999/xlink">
<g id="graph0" class="graph" transform="scale(1 1) rotate(0) translate(4 207)">
<title>dependencies</title>
<polygon fill="#ffffff" stroke="transparent" points="-4,4 -4,-207 847,-207 847,4 -4,4"/>
<text text-anchor="start" x="400.5091" y="-42.4" font-family="sans-serif" font-weight="bold" font-size="14.00" fill="#000000">Legend</text>
<polygon fill="#ffffb3" stroke="transparent" points="187.5,-10 187.5,-30 207.5,-30 207.5,-10 187.5,-10"/>
<text text-anchor="start" x="211.129" y="-15.4" font-family="sans-serif" font-size="14.00" fill="#000000"> &#160;Declarations</text>
<polygon fill="#8dd3c7" stroke="transparent" points="300.5,-10 300.5,-30 320.5,-30 320.5,-10 300.5,-10"/>
<text text-anchor="start" x="324.2251" y="-15.4" font-family="sans-serif" font-size="14.00" fill="#000000"> &#160;Module</text>
<polygon fill="#80b1d3" stroke="transparent" points="386.5,-10 386.5,-30 406.5,-30 406.5,-10 386.5,-10"/>
<text text-anchor="start" x="410.2812" y="-15.4" font-family="sans-serif" font-size="14.00" fill="#000000"> &#160;Bootstrap</text>
<polygon fill="#fdb462" stroke="transparent" points="483.5,-10 483.5,-30 503.5,-30 503.5,-10 483.5,-10"/>
<text text-anchor="start" x="507.1732" y="-15.4" font-family="sans-serif" font-size="14.00" fill="#000000"> &#160;Providers</text>
<polygon fill="#fb8072" stroke="transparent" points="579.5,-10 579.5,-30 599.5,-30 599.5,-10 579.5,-10"/>
<text text-anchor="start" x="603.2258" y="-15.4" font-family="sans-serif" font-size="14.00" fill="#000000"> &#160;Exports</text>
<g id="clust1" class="cluster">
<title>cluster_EventsPageModule</title>
<polygon fill="none" stroke="#000000" stroke-dasharray="1,5" points="8,-70 8,-195 835,-195 835,-70 8,-70"/>
</g>
<g id="clust2" class="cluster">
<title>cluster_EventsPageModule_declarations</title>
<polygon fill="none" stroke="#000000" points="729,-78 729,-130 827,-130 827,-78 729,-78"/>
</g>
<g id="clust4" class="cluster">
<title>cluster_EventsPageModule_imports</title>
<polygon fill="none" stroke="#000000" points="16,-78 16,-130 721,-130 721,-78 16,-78"/>
</g>
<!-- EventsPage -->
<g id="node1" class="node">
<title>EventsPage</title>
<polygon fill="#ffffb3" stroke="#000000" points="818.8148,-122 737.1852,-122 737.1852,-86 818.8148,-86 818.8148,-122"/>
<text text-anchor="middle" x="778" y="-99.8" font-family="Times,serif" font-size="14.00" fill="#000000">EventsPage</text>
</g>
<!-- EventsPageModule -->
<g id="node2" class="node">
<title>EventsPageModule</title>
<polygon fill="#8dd3c7" stroke="#000000" points="529.3641,-187 526.3641,-191 505.3641,-191 502.3641,-187 404.6359,-187 404.6359,-151 529.3641,-151 529.3641,-187"/>
<text text-anchor="middle" x="467" y="-164.8" font-family="Times,serif" font-size="14.00" fill="#000000">EventsPageModule</text>
</g>
<!-- EventsPage&#45;&gt;EventsPageModule -->
<g id="edge1" class="edge">
<title>EventsPage&#45;&gt;EventsPageModule</title>
<path fill="none" stroke="#000000" d="M778,-122.2843C778,-143.3211 778,-175 778,-175 778,-175 539.5614,-175 539.5614,-175"/>
<polygon fill="#000000" stroke="#000000" points="539.5614,-171.5001 529.5614,-175 539.5613,-178.5001 539.5614,-171.5001"/>
</g>
<!-- CommonModule -->
<g id="node3" class="node">
<title>CommonModule</title>
<polygon fill="#8dd3c7" stroke="#000000" points="712.6681,-122 709.6681,-126 688.6681,-126 685.6681,-122 601.3319,-122 601.3319,-86 712.6681,-86 712.6681,-122"/>
<text text-anchor="middle" x="657" y="-99.8" font-family="Times,serif" font-size="14.00" fill="#000000">CommonModule</text>
</g>
<!-- CommonModule&#45;&gt;EventsPageModule -->
<g id="edge2" class="edge">
<title>CommonModule&#45;&gt;EventsPageModule</title>
<path fill="none" stroke="#000000" d="M657,-122.0225C657,-139.3734 657,-163 657,-163 657,-163 539.4763,-163 539.4763,-163"/>
<polygon fill="#000000" stroke="#000000" points="539.4763,-159.5001 529.4763,-163 539.4762,-166.5001 539.4763,-159.5001"/>
</g>
<!-- FormsModule -->
<g id="node4" class="node">
<title>FormsModule</title>
<polygon fill="#8dd3c7" stroke="#000000" points="583.8288,-122 580.8288,-126 559.8288,-126 556.8288,-122 488.1712,-122 488.1712,-86 583.8288,-86 583.8288,-122"/>
<text text-anchor="middle" x="536" y="-99.8" font-family="Times,serif" font-size="14.00" fill="#000000">FormsModule</text>
</g>
<!-- FormsModule&#45;&gt;EventsPageModule -->
<g id="edge3" class="edge">
<title>FormsModule&#45;&gt;EventsPageModule</title>
<path fill="none" stroke="#000000" d="M508.884,-122.1061C508.884,-122.1061 508.884,-140.991 508.884,-140.991"/>
<polygon fill="#000000" stroke="#000000" points="505.384,-140.9909 508.884,-150.991 512.384,-140.991 505.384,-140.9909"/>
</g>
<!-- IonicModule.forRoot() -->
<g id="node5" class="node">
<title>IonicModule.forRoot()</title>
<polygon fill="#8dd3c7" stroke="#000000" points="470.1855,-122 467.1855,-126 446.1855,-126 443.1855,-122 325.8145,-122 325.8145,-86 470.1855,-86 470.1855,-122"/>
<text text-anchor="middle" x="398" y="-99.8" font-family="Times,serif" font-size="14.00" fill="#000000">IonicModule.forRoot()</text>
</g>
<!-- IonicModule.forRoot()&#45;&gt;EventsPageModule -->
<g id="edge4" class="edge">
<title>IonicModule.forRoot()&#45;&gt;EventsPageModule</title>
<path fill="none" stroke="#000000" d="M437.4553,-122.1061C437.4553,-122.1061 437.4553,-140.991 437.4553,-140.991"/>
<polygon fill="#000000" stroke="#000000" points="433.9554,-140.9909 437.4553,-150.991 440.9554,-140.991 433.9554,-140.9909"/>
</g>
<!-- RouterModule.forChild(args) -->
<g id="node6" class="node">
<title>RouterModule.forChild(args)</title>
<polygon fill="#8dd3c7" stroke="#000000" points="307.7323,-122 304.7323,-126 283.7323,-126 280.7323,-122 126.2677,-122 126.2677,-86 307.7323,-86 307.7323,-122"/>
<text text-anchor="middle" x="217" y="-99.8" font-family="Times,serif" font-size="14.00" fill="#000000">RouterModule.forChild(args)</text>
</g>
<!-- RouterModule.forChild(args)&#45;&gt;EventsPageModule -->
<g id="edge5" class="edge">
<title>RouterModule.forChild(args)&#45;&gt;EventsPageModule</title>
<path fill="none" stroke="#000000" d="M217,-122.0225C217,-139.3734 217,-163 217,-163 217,-163 394.5593,-163 394.5593,-163"/>
<polygon fill="#000000" stroke="#000000" points="394.5594,-166.5001 404.5593,-163 394.5593,-159.5001 394.5594,-166.5001"/>
</g>
<!-- PipeModule -->
<g id="node7" class="node">
<title>PipeModule</title>
<polygon fill="#8dd3c7" stroke="#000000" points="108.4387,-122 105.4387,-126 84.4387,-126 81.4387,-122 23.5613,-122 23.5613,-86 108.4387,-86 108.4387,-122"/>
<text text-anchor="middle" x="66" y="-99.8" font-family="Times,serif" font-size="14.00" fill="#000000">PipeModule</text>
</g>
<!-- PipeModule&#45;&gt;EventsPageModule -->
<g id="edge6" class="edge">
<title>PipeModule&#45;&gt;EventsPageModule</title>
<path fill="none" stroke="#000000" d="M66,-122.2843C66,-143.3211 66,-175 66,-175 66,-175 394.3438,-175 394.3438,-175"/>
<polygon fill="#000000" stroke="#000000" points="394.3438,-178.5001 404.3438,-175 394.3437,-171.5001 394.3438,-178.5001"/>
</g>
</g>
</svg>
