<?xml version="1.0" encoding="UTF-8" standalone="no"?>
<!DOCTYPE svg PUBLIC "-//W3C//DTD SVG 1.1//EN"
 "http://www.w3.org/Graphics/SVG/1.1/DTD/svg11.dtd">
<!-- Generated by graphviz version 2.40.1 (20161225.0304)
 -->
<!-- Title: dependencies Pages: 1 -->
<svg width="759pt" height="211pt"
 viewBox="0.00 0.00 759.00 211.00" xmlns="http://www.w3.org/2000/svg" xmlns:xlink="http://www.w3.org/1999/xlink">
<g id="graph0" class="graph" transform="scale(1 1) rotate(0) translate(4 207)">
<title>dependencies</title>
<polygon fill="#ffffff" stroke="transparent" points="-4,4 -4,-207 755,-207 755,4 -4,4"/>
<text text-anchor="start" x="354.5091" y="-42.4" font-family="sans-serif" font-weight="bold" font-size="14.00" fill="#000000">Legend</text>
<polygon fill="#ffffb3" stroke="transparent" points="141.5,-10 141.5,-30 161.5,-30 161.5,-10 141.5,-10"/>
<text text-anchor="start" x="165.129" y="-15.4" font-family="sans-serif" font-size="14.00" fill="#000000"> &#160;Declarations</text>
<polygon fill="#8dd3c7" stroke="transparent" points="254.5,-10 254.5,-30 274.5,-30 274.5,-10 254.5,-10"/>
<text text-anchor="start" x="278.2251" y="-15.4" font-family="sans-serif" font-size="14.00" fill="#000000"> &#160;Module</text>
<polygon fill="#80b1d3" stroke="transparent" points="340.5,-10 340.5,-30 360.5,-30 360.5,-10 340.5,-10"/>
<text text-anchor="start" x="364.2812" y="-15.4" font-family="sans-serif" font-size="14.00" fill="#000000"> &#160;Bootstrap</text>
<polygon fill="#fdb462" stroke="transparent" points="437.5,-10 437.5,-30 457.5,-30 457.5,-10 437.5,-10"/>
<text text-anchor="start" x="461.1732" y="-15.4" font-family="sans-serif" font-size="14.00" fill="#000000"> &#160;Providers</text>
<polygon fill="#fb8072" stroke="transparent" points="533.5,-10 533.5,-30 553.5,-30 553.5,-10 533.5,-10"/>
<text text-anchor="start" x="557.2258" y="-15.4" font-family="sans-serif" font-size="14.00" fill="#000000"> &#160;Exports</text>
<g id="clust1" class="cluster">
<title>cluster_LecturesPageModule</title>
<polygon fill="none" stroke="#000000" stroke-dasharray="1,5" points="8,-70 8,-195 743,-195 743,-70 8,-70"/>
</g>
<g id="clust2" class="cluster">
<title>cluster_LecturesPageModule_declarations</title>
<polygon fill="none" stroke="#000000" points="627,-78 627,-130 735,-130 735,-78 627,-78"/>
</g>
<g id="clust4" class="cluster">
<title>cluster_LecturesPageModule_imports</title>
<polygon fill="none" stroke="#000000" points="16,-78 16,-130 619,-130 619,-78 16,-78"/>
</g>
<!-- LecturesPage -->
<g id="node1" class="node">
<title>LecturesPage</title>
<polygon fill="#ffffb3" stroke="#000000" points="726.9049,-122 635.0951,-122 635.0951,-86 726.9049,-86 726.9049,-122"/>
<text text-anchor="middle" x="681" y="-99.8" font-family="Times,serif" font-size="14.00" fill="#000000">LecturesPage</text>
</g>
<!-- LecturesPageModule -->
<g id="node2" class="node">
<title>LecturesPageModule</title>
<polygon fill="#8dd3c7" stroke="#000000" points="501.4538,-187 498.4538,-191 477.4538,-191 474.4538,-187 366.5462,-187 366.5462,-151 501.4538,-151 501.4538,-187"/>
<text text-anchor="middle" x="434" y="-164.8" font-family="Times,serif" font-size="14.00" fill="#000000">LecturesPageModule</text>
</g>
<!-- LecturesPage&#45;&gt;LecturesPageModule -->
<g id="edge1" class="edge">
<title>LecturesPage&#45;&gt;LecturesPageModule</title>
<path fill="none" stroke="#000000" d="M681,-122.1061C681,-141.3391 681,-169 681,-169 681,-169 511.4938,-169 511.4938,-169"/>
<polygon fill="#000000" stroke="#000000" points="511.4939,-165.5001 501.4938,-169 511.4938,-172.5001 511.4939,-165.5001"/>
</g>
<!-- CommonModule -->
<g id="node3" class="node">
<title>CommonModule</title>
<polygon fill="#8dd3c7" stroke="#000000" points="610.6681,-122 607.6681,-126 586.6681,-126 583.6681,-122 499.3319,-122 499.3319,-86 610.6681,-86 610.6681,-122"/>
<text text-anchor="middle" x="555" y="-99.8" font-family="Times,serif" font-size="14.00" fill="#000000">CommonModule</text>
</g>
<!-- CommonModule&#45;&gt;LecturesPageModule -->
<g id="edge2" class="edge">
<title>CommonModule&#45;&gt;LecturesPageModule</title>
<path fill="none" stroke="#000000" d="M499.1254,-104C493.8456,-104 490.4152,-104 490.4152,-104 490.4152,-104 490.4152,-140.8939 490.4152,-140.8939"/>
<polygon fill="#000000" stroke="#000000" points="486.9152,-140.8938 490.4152,-150.8939 493.9152,-140.8939 486.9152,-140.8938"/>
</g>
<!-- FormsModule -->
<g id="node4" class="node">
<title>FormsModule</title>
<polygon fill="#8dd3c7" stroke="#000000" points="481.8288,-122 478.8288,-126 457.8288,-126 454.8288,-122 386.1712,-122 386.1712,-86 481.8288,-86 481.8288,-122"/>
<text text-anchor="middle" x="434" y="-99.8" font-family="Times,serif" font-size="14.00" fill="#000000">FormsModule</text>
</g>
<!-- FormsModule&#45;&gt;LecturesPageModule -->
<g id="edge3" class="edge">
<title>FormsModule&#45;&gt;LecturesPageModule</title>
<path fill="none" stroke="#000000" d="M434,-122.1061C434,-122.1061 434,-140.991 434,-140.991"/>
<polygon fill="#000000" stroke="#000000" points="430.5001,-140.9909 434,-150.991 437.5001,-140.991 430.5001,-140.9909"/>
</g>
<!-- IonicModule.forRoot() -->
<g id="node5" class="node">
<title>IonicModule.forRoot()</title>
<polygon fill="#8dd3c7" stroke="#000000" points="368.1855,-122 365.1855,-126 344.1855,-126 341.1855,-122 223.8145,-122 223.8145,-86 368.1855,-86 368.1855,-122"/>
<text text-anchor="middle" x="296" y="-99.8" font-family="Times,serif" font-size="14.00" fill="#000000">IonicModule.forRoot()</text>
</g>
<!-- IonicModule.forRoot()&#45;&gt;LecturesPageModule -->
<g id="edge4" class="edge">
<title>IonicModule.forRoot()&#45;&gt;LecturesPageModule</title>
<path fill="none" stroke="#000000" d="M368.3237,-104C373.8529,-104 377.3393,-104 377.3393,-104 377.3393,-104 377.3393,-140.8939 377.3393,-140.8939"/>
<polygon fill="#000000" stroke="#000000" points="373.8393,-140.8938 377.3393,-150.8939 380.8393,-140.8939 373.8393,-140.8938"/>
</g>
<!-- RouterModule.forChild(args) -->
<g id="node6" class="node">
<title>RouterModule.forChild(args)</title>
<polygon fill="#8dd3c7" stroke="#000000" points="205.7323,-122 202.7323,-126 181.7323,-126 178.7323,-122 24.2677,-122 24.2677,-86 205.7323,-86 205.7323,-122"/>
<text text-anchor="middle" x="115" y="-99.8" font-family="Times,serif" font-size="14.00" fill="#000000">RouterModule.forChild(args)</text>
</g>
<!-- RouterModule.forChild(args)&#45;&gt;LecturesPageModule -->
<g id="edge5" class="edge">
<title>RouterModule.forChild(args)&#45;&gt;LecturesPageModule</title>
<path fill="none" stroke="#000000" d="M115,-122.1061C115,-141.3391 115,-169 115,-169 115,-169 356.3483,-169 356.3483,-169"/>
<polygon fill="#000000" stroke="#000000" points="356.3483,-172.5001 366.3483,-169 356.3483,-165.5001 356.3483,-172.5001"/>
</g>
</g>
</svg>
