<?xml version="1.0" encoding="UTF-8" standalone="no"?>
<!DOCTYPE svg PUBLIC "-//W3C//DTD SVG 1.1//EN"
 "http://www.w3.org/Graphics/SVG/1.1/DTD/svg11.dtd">
<!-- Generated by graphviz version 2.40.1 (20161225.0304)
 -->
<!-- Title: dependencies Pages: 1 -->
<svg width="639pt" height="284pt"
 viewBox="0.00 0.00 639.00 284.00" xmlns="http://www.w3.org/2000/svg" xmlns:xlink="http://www.w3.org/1999/xlink">
<g id="graph0" class="graph" transform="scale(1 1) rotate(0) translate(4 280)">
<title>dependencies</title>
<polygon fill="#ffffff" stroke="transparent" points="-4,4 -4,-280 635,-280 635,4 -4,4"/>
<text text-anchor="start" x="294.5091" y="-42.4" font-family="sans-serif" font-weight="bold" font-size="14.00" fill="#000000">Legend</text>
<polygon fill="#ffffb3" stroke="transparent" points="81.5,-10 81.5,-30 101.5,-30 101.5,-10 81.5,-10"/>
<text text-anchor="start" x="105.129" y="-15.4" font-family="sans-serif" font-size="14.00" fill="#000000"> &#160;Declarations</text>
<polygon fill="#8dd3c7" stroke="transparent" points="194.5,-10 194.5,-30 214.5,-30 214.5,-10 194.5,-10"/>
<text text-anchor="start" x="218.2251" y="-15.4" font-family="sans-serif" font-size="14.00" fill="#000000"> &#160;Module</text>
<polygon fill="#80b1d3" stroke="transparent" points="280.5,-10 280.5,-30 300.5,-30 300.5,-10 280.5,-10"/>
<text text-anchor="start" x="304.2812" y="-15.4" font-family="sans-serif" font-size="14.00" fill="#000000"> &#160;Bootstrap</text>
<polygon fill="#fdb462" stroke="transparent" points="377.5,-10 377.5,-30 397.5,-30 397.5,-10 377.5,-10"/>
<text text-anchor="start" x="401.1732" y="-15.4" font-family="sans-serif" font-size="14.00" fill="#000000"> &#160;Providers</text>
<polygon fill="#fb8072" stroke="transparent" points="473.5,-10 473.5,-30 493.5,-30 493.5,-10 473.5,-10"/>
<text text-anchor="start" x="497.2258" y="-15.4" font-family="sans-serif" font-size="14.00" fill="#000000"> &#160;Exports</text>
<g id="clust1" class="cluster">
<title>cluster_CoreModule</title>
<polygon fill="none" stroke="#000000" stroke-dasharray="1,5" points="8,-70 8,-268 623,-268 623,-70 8,-70"/>
</g>
<g id="clust3" class="cluster">
<title>cluster_CoreModule_imports</title>
<polygon fill="none" stroke="#000000" points="16,-78 16,-130 615,-130 615,-78 16,-78"/>
</g>
<g id="clust4" class="cluster">
<title>cluster_CoreModule_exports</title>
<polygon fill="none" stroke="#000000" points="288,-208 288,-260 426,-260 426,-208 288,-208"/>
</g>
<!-- CommonModule -->
<g id="node1" class="node">
<title>CommonModule</title>
<polygon fill="#8dd3c7" stroke="#000000" points="606.6681,-122 603.6681,-126 582.6681,-126 579.6681,-122 495.3319,-122 495.3319,-86 606.6681,-86 606.6681,-122"/>
<text text-anchor="middle" x="551" y="-99.8" font-family="Times,serif" font-size="14.00" fill="#000000">CommonModule</text>
</g>
<!-- CoreModule -->
<g id="node5" class="node">
<title>CoreModule</title>
<polygon fill="#8dd3c7" stroke="#000000" points="400.2619,-187 397.2619,-191 376.2619,-191 373.2619,-187 313.7381,-187 313.7381,-151 400.2619,-151 400.2619,-187"/>
<text text-anchor="middle" x="357" y="-164.8" font-family="Times,serif" font-size="14.00" fill="#000000">CoreModule</text>
</g>
<!-- CommonModule&#45;&gt;CoreModule -->
<g id="edge1" class="edge">
<title>CommonModule&#45;&gt;CoreModule</title>
<path fill="none" stroke="#000000" d="M551,-122.1061C551,-141.3391 551,-169 551,-169 551,-169 410.5374,-169 410.5374,-169"/>
<polygon fill="#000000" stroke="#000000" points="410.5374,-165.5001 400.5374,-169 410.5374,-172.5001 410.5374,-165.5001"/>
</g>
<!-- HttpClientModule -->
<g id="node2" class="node">
<title>HttpClientModule</title>
<polygon fill="#8dd3c7" stroke="#000000" points="477.1611,-122 474.1611,-126 453.1611,-126 450.1611,-122 358.8389,-122 358.8389,-86 477.1611,-86 477.1611,-122"/>
<text text-anchor="middle" x="418" y="-99.8" font-family="Times,serif" font-size="14.00" fill="#000000">HttpClientModule</text>
</g>
<!-- HttpClientModule&#45;&gt;CoreModule -->
<g id="edge2" class="edge">
<title>HttpClientModule&#45;&gt;CoreModule</title>
<path fill="none" stroke="#000000" d="M379.5253,-122.1061C379.5253,-122.1061 379.5253,-140.991 379.5253,-140.991"/>
<polygon fill="#000000" stroke="#000000" points="376.0253,-140.9909 379.5253,-150.991 383.0253,-140.991 376.0253,-140.9909"/>
</g>
<!-- IonicModule -->
<g id="node3" class="node">
<title>IonicModule</title>
<polygon fill="#8dd3c7" stroke="#000000" points="341.3162,-122 338.3162,-126 317.3162,-126 314.3162,-122 252.6838,-122 252.6838,-86 341.3162,-86 341.3162,-122"/>
<text text-anchor="middle" x="297" y="-99.8" font-family="Times,serif" font-size="14.00" fill="#000000">IonicModule</text>
</g>
<!-- IonicModule&#45;&gt;CoreModule -->
<g id="edge3" class="edge">
<title>IonicModule&#45;&gt;CoreModule</title>
<path fill="none" stroke="#000000" d="M327.3885,-122.1061C327.3885,-122.1061 327.3885,-140.991 327.3885,-140.991"/>
<polygon fill="#000000" stroke="#000000" points="323.8886,-140.9909 327.3885,-150.991 330.8886,-140.991 323.8886,-140.9909"/>
</g>
<!-- IonicStorageModule.forRoot(args) -->
<g id="node4" class="node">
<title>IonicStorageModule.forRoot(args)</title>
<polygon fill="#8dd3c7" stroke="#000000" points="234.2681,-122 231.2681,-126 210.2681,-126 207.2681,-122 23.7319,-122 23.7319,-86 234.2681,-86 234.2681,-122"/>
<text text-anchor="middle" x="129" y="-99.8" font-family="Times,serif" font-size="14.00" fill="#000000">IonicStorageModule.forRoot(args)</text>
</g>
<!-- IonicStorageModule.forRoot(args)&#45;&gt;CoreModule -->
<g id="edge4" class="edge">
<title>IonicStorageModule.forRoot(args)&#45;&gt;CoreModule</title>
<path fill="none" stroke="#000000" d="M129,-122.1061C129,-141.3391 129,-169 129,-169 129,-169 303.5783,-169 303.5783,-169"/>
<polygon fill="#000000" stroke="#000000" points="303.5783,-172.5001 313.5783,-169 303.5782,-165.5001 303.5783,-172.5001"/>
</g>
<!-- HttpClientModule  -->
<g id="node6" class="node">
<title>HttpClientModule </title>
<polygon fill="#fb8072" stroke="#000000" points="418.1607,-252 295.8393,-252 295.8393,-216 418.1607,-216 418.1607,-252"/>
<text text-anchor="middle" x="357" y="-229.8" font-family="Times,serif" font-size="14.00" fill="#000000">HttpClientModule </text>
</g>
<!-- CoreModule&#45;&gt;HttpClientModule  -->
<g id="edge5" class="edge">
<title>CoreModule&#45;&gt;HttpClientModule </title>
<path fill="none" stroke="#000000" stroke-dasharray="5,2" d="M357,-187.1061C357,-187.1061 357,-205.991 357,-205.991"/>
<polygon fill="#000000" stroke="#000000" points="353.5001,-205.9909 357,-215.991 360.5001,-205.991 353.5001,-205.9909"/>
</g>
</g>
</svg>
