<?xml version="1.0" encoding="UTF-8" standalone="no"?>
<!DOCTYPE svg PUBLIC "-//W3C//DTD SVG 1.1//EN"
 "http://www.w3.org/Graphics/SVG/1.1/DTD/svg11.dtd">
<!-- Generated by graphviz version 2.40.1 (20161225.0304)
 -->
<!-- Title: dependencies Pages: 1 -->
<svg width="737pt" height="211pt"
 viewBox="0.00 0.00 737.00 211.00" xmlns="http://www.w3.org/2000/svg" xmlns:xlink="http://www.w3.org/1999/xlink">
<g id="graph0" class="graph" transform="scale(1 1) rotate(0) translate(4 207)">
<title>dependencies</title>
<polygon fill="#ffffff" stroke="transparent" points="-4,4 -4,-207 733,-207 733,4 -4,4"/>
<text text-anchor="start" x="343.5091" y="-42.4" font-family="sans-serif" font-weight="bold" font-size="14.00" fill="#000000">Legend</text>
<polygon fill="#ffffb3" stroke="transparent" points="130.5,-10 130.5,-30 150.5,-30 150.5,-10 130.5,-10"/>
<text text-anchor="start" x="154.129" y="-15.4" font-family="sans-serif" font-size="14.00" fill="#000000"> &#160;Declarations</text>
<polygon fill="#8dd3c7" stroke="transparent" points="243.5,-10 243.5,-30 263.5,-30 263.5,-10 243.5,-10"/>
<text text-anchor="start" x="267.2251" y="-15.4" font-family="sans-serif" font-size="14.00" fill="#000000"> &#160;Module</text>
<polygon fill="#80b1d3" stroke="transparent" points="329.5,-10 329.5,-30 349.5,-30 349.5,-10 329.5,-10"/>
<text text-anchor="start" x="353.2812" y="-15.4" font-family="sans-serif" font-size="14.00" fill="#000000"> &#160;Bootstrap</text>
<polygon fill="#fdb462" stroke="transparent" points="426.5,-10 426.5,-30 446.5,-30 446.5,-10 426.5,-10"/>
<text text-anchor="start" x="450.1732" y="-15.4" font-family="sans-serif" font-size="14.00" fill="#000000"> &#160;Providers</text>
<polygon fill="#fb8072" stroke="transparent" points="522.5,-10 522.5,-30 542.5,-30 542.5,-10 522.5,-10"/>
<text text-anchor="start" x="546.2258" y="-15.4" font-family="sans-serif" font-size="14.00" fill="#000000"> &#160;Exports</text>
<g id="clust1" class="cluster">
<title>cluster_IntroPageModule</title>
<polygon fill="none" stroke="#000000" stroke-dasharray="1,5" points="8,-70 8,-195 721,-195 721,-70 8,-70"/>
</g>
<g id="clust2" class="cluster">
<title>cluster_IntroPageModule_declarations</title>
<polygon fill="none" stroke="#000000" points="627,-78 627,-130 713,-130 713,-78 627,-78"/>
</g>
<g id="clust4" class="cluster">
<title>cluster_IntroPageModule_imports</title>
<polygon fill="none" stroke="#000000" points="16,-78 16,-130 619,-130 619,-78 16,-78"/>
</g>
<!-- IntroPage -->
<g id="node1" class="node">
<title>IntroPage</title>
<polygon fill="#ffffb3" stroke="#000000" points="705.4249,-122 634.5751,-122 634.5751,-86 705.4249,-86 705.4249,-122"/>
<text text-anchor="middle" x="670" y="-99.8" font-family="Times,serif" font-size="14.00" fill="#000000">IntroPage</text>
</g>
<!-- IntroPageModule -->
<g id="node2" class="node">
<title>IntroPageModule</title>
<polygon fill="#8dd3c7" stroke="#000000" points="490.9734,-187 487.9734,-191 466.9734,-191 463.9734,-187 377.0266,-187 377.0266,-151 490.9734,-151 490.9734,-187"/>
<text text-anchor="middle" x="434" y="-164.8" font-family="Times,serif" font-size="14.00" fill="#000000">IntroPageModule</text>
</g>
<!-- IntroPage&#45;&gt;IntroPageModule -->
<g id="edge1" class="edge">
<title>IntroPage&#45;&gt;IntroPageModule</title>
<path fill="none" stroke="#000000" d="M670,-122.1061C670,-141.3391 670,-169 670,-169 670,-169 501.129,-169 501.129,-169"/>
<polygon fill="#000000" stroke="#000000" points="501.1291,-165.5001 491.129,-169 501.129,-172.5001 501.1291,-165.5001"/>
</g>
<!-- CommonModule -->
<g id="node3" class="node">
<title>CommonModule</title>
<polygon fill="#8dd3c7" stroke="#000000" points="610.6681,-122 607.6681,-126 586.6681,-126 583.6681,-122 499.3319,-122 499.3319,-86 610.6681,-86 610.6681,-122"/>
<text text-anchor="middle" x="555" y="-99.8" font-family="Times,serif" font-size="14.00" fill="#000000">CommonModule</text>
</g>
<!-- CommonModule&#45;&gt;IntroPageModule -->
<g id="edge2" class="edge">
<title>CommonModule&#45;&gt;IntroPageModule</title>
<path fill="none" stroke="#000000" d="M499.2426,-104C491.6078,-104 486.3254,-104 486.3254,-104 486.3254,-104 486.3254,-140.8939 486.3254,-140.8939"/>
<polygon fill="#000000" stroke="#000000" points="482.8255,-140.8938 486.3254,-150.8939 489.8255,-140.8939 482.8255,-140.8938"/>
</g>
<!-- FormsModule -->
<g id="node4" class="node">
<title>FormsModule</title>
<polygon fill="#8dd3c7" stroke="#000000" points="481.8288,-122 478.8288,-126 457.8288,-126 454.8288,-122 386.1712,-122 386.1712,-86 481.8288,-86 481.8288,-122"/>
<text text-anchor="middle" x="434" y="-99.8" font-family="Times,serif" font-size="14.00" fill="#000000">FormsModule</text>
</g>
<!-- FormsModule&#45;&gt;IntroPageModule -->
<g id="edge3" class="edge">
<title>FormsModule&#45;&gt;IntroPageModule</title>
<path fill="none" stroke="#000000" d="M434,-122.1061C434,-122.1061 434,-140.991 434,-140.991"/>
<polygon fill="#000000" stroke="#000000" points="430.5001,-140.9909 434,-150.991 437.5001,-140.991 430.5001,-140.9909"/>
</g>
<!-- IonicModule.forRoot() -->
<g id="node5" class="node">
<title>IonicModule.forRoot()</title>
<polygon fill="#8dd3c7" stroke="#000000" points="368.1855,-122 365.1855,-126 344.1855,-126 341.1855,-122 223.8145,-122 223.8145,-86 368.1855,-86 368.1855,-122"/>
<text text-anchor="middle" x="296" y="-99.8" font-family="Times,serif" font-size="14.00" fill="#000000">IonicModule.forRoot()</text>
</g>
<!-- IonicModule.forRoot()&#45;&gt;IntroPageModule -->
<g id="edge4" class="edge">
<title>IonicModule.forRoot()&#45;&gt;IntroPageModule</title>
<path fill="none" stroke="#000000" d="M368.2879,-104C376.3199,-104 381.6746,-104 381.6746,-104 381.6746,-104 381.6746,-140.8939 381.6746,-140.8939"/>
<polygon fill="#000000" stroke="#000000" points="378.1747,-140.8938 381.6746,-150.8939 385.1747,-140.8939 378.1747,-140.8938"/>
</g>
<!-- RouterModule.forChild(args) -->
<g id="node6" class="node">
<title>RouterModule.forChild(args)</title>
<polygon fill="#8dd3c7" stroke="#000000" points="205.7323,-122 202.7323,-126 181.7323,-126 178.7323,-122 24.2677,-122 24.2677,-86 205.7323,-86 205.7323,-122"/>
<text text-anchor="middle" x="115" y="-99.8" font-family="Times,serif" font-size="14.00" fill="#000000">RouterModule.forChild(args)</text>
</g>
<!-- RouterModule.forChild(args)&#45;&gt;IntroPageModule -->
<g id="edge5" class="edge">
<title>RouterModule.forChild(args)&#45;&gt;IntroPageModule</title>
<path fill="none" stroke="#000000" d="M115,-122.1061C115,-141.3391 115,-169 115,-169 115,-169 366.9692,-169 366.9692,-169"/>
<polygon fill="#000000" stroke="#000000" points="366.9692,-172.5001 376.9692,-169 366.9692,-165.5001 366.9692,-172.5001"/>
</g>
</g>
</svg>
