<?xml version="1.0" encoding="UTF-8" standalone="no"?>
<!DOCTYPE svg PUBLIC "-//W3C//DTD SVG 1.1//EN"
 "http://www.w3.org/Graphics/SVG/1.1/DTD/svg11.dtd">
<!-- Generated by graphviz version 2.40.1 (20161225.0304)
 -->
<!-- Title: dependencies Pages: 1 -->
<svg width="4730pt" height="298pt"
 viewBox="0.00 0.00 4730.00 298.00" xmlns="http://www.w3.org/2000/svg" xmlns:xlink="http://www.w3.org/1999/xlink">
<g id="graph0" class="graph" transform="scale(1 1) rotate(0) translate(4 294)">
<title>dependencies</title>
<polygon fill="#ffffff" stroke="transparent" points="-4,4 -4,-294 4726,-294 4726,4 -4,4"/>
<text text-anchor="start" x="2340.0091" y="-42.4" font-family="sans-serif" font-weight="bold" font-size="14.00" fill="#000000">Legend</text>
<polygon fill="#ffffb3" stroke="transparent" points="2127,-10 2127,-30 2147,-30 2147,-10 2127,-10"/>
<text text-anchor="start" x="2150.629" y="-15.4" font-family="sans-serif" font-size="14.00" fill="#000000"> &#160;Declarations</text>
<polygon fill="#8dd3c7" stroke="transparent" points="2240,-10 2240,-30 2260,-30 2260,-10 2240,-10"/>
<text text-anchor="start" x="2263.7251" y="-15.4" font-family="sans-serif" font-size="14.00" fill="#000000"> &#160;Module</text>
<polygon fill="#80b1d3" stroke="transparent" points="2326,-10 2326,-30 2346,-30 2346,-10 2326,-10"/>
<text text-anchor="start" x="2349.7812" y="-15.4" font-family="sans-serif" font-size="14.00" fill="#000000"> &#160;Bootstrap</text>
<polygon fill="#fdb462" stroke="transparent" points="2423,-10 2423,-30 2443,-30 2443,-10 2423,-10"/>
<text text-anchor="start" x="2446.6732" y="-15.4" font-family="sans-serif" font-size="14.00" fill="#000000"> &#160;Providers</text>
<polygon fill="#fb8072" stroke="transparent" points="2519,-10 2519,-30 2539,-30 2539,-10 2519,-10"/>
<text text-anchor="start" x="2542.7258" y="-15.4" font-family="sans-serif" font-size="14.00" fill="#000000"> &#160;Exports</text>
<g id="clust1" class="cluster">
<title>cluster_AppModule</title>
<polygon fill="none" stroke="#000000" stroke-dasharray="1,5" points="8,-70 8,-282 2296,-282 2296,-70 8,-70"/>
</g>
<g id="clust2" class="cluster">
<title>cluster_AppModule_declarations</title>
<polygon fill="none" stroke="#000000" points="1360,-78 1360,-130 1482,-130 1482,-78 1360,-78"/>
</g>
<g id="clust4" class="cluster">
<title>cluster_AppModule_imports</title>
<polygon fill="none" stroke="#000000" points="1490,-78 1490,-130 2288,-130 2288,-78 1490,-78"/>
</g>
<g id="clust6" class="cluster">
<title>cluster_AppModule_bootstrap</title>
<polygon fill="none" stroke="#000000" points="1252,-222 1252,-274 1376,-274 1376,-222 1252,-222"/>
</g>
<g id="clust7" class="cluster">
<title>cluster_AppModule_providers</title>
<polygon fill="none" stroke="#000000" points="16,-78 16,-130 1352,-130 1352,-78 16,-78"/>
</g>
<g id="clust8" class="cluster">
<title>cluster_AppRoutingModule</title>
<polygon fill="none" stroke="#000000" stroke-dasharray="1,5" points="2304,-138 2304,-206 2640,-206 2640,-138 2304,-138"/>
</g>
<g id="clust10" class="cluster">
<title>cluster_AppRoutingModule_imports</title>
<polygon fill="none" stroke="#000000" points="2438,-146 2438,-198 2632,-198 2632,-146 2438,-146"/>
</g>
<g id="clust11" class="cluster">
<title>cluster_AppRoutingModule_exports</title>
<polygon fill="none" stroke="#000000" points="2312,-146 2312,-198 2430,-198 2430,-146 2312,-146"/>
</g>
<g id="clust14" class="cluster">
<title>cluster_CantinePageModule</title>
<polygon fill="none" stroke="#000000" stroke-dasharray="1,5" points="3322,-70 3322,-198 3994,-198 3994,-70 3322,-70"/>
</g>
<g id="clust15" class="cluster">
<title>cluster_CantinePageModule_declarations</title>
<polygon fill="none" stroke="#000000" points="3330,-78 3330,-130 3432,-130 3432,-78 3330,-78"/>
</g>
<g id="clust17" class="cluster">
<title>cluster_CantinePageModule_imports</title>
<polygon fill="none" stroke="#000000" points="3440,-78 3440,-130 3986,-130 3986,-78 3440,-78"/>
</g>
<g id="clust21" class="cluster">
<title>cluster_CoreModule</title>
<polygon fill="none" stroke="#000000" stroke-dasharray="1,5" points="2648,-146 2648,-282 2802,-282 2802,-146 2648,-146"/>
</g>
<g id="clust24" class="cluster">
<title>cluster_CoreModule_exports</title>
<polygon fill="none" stroke="#000000" points="2656,-222 2656,-274 2794,-274 2794,-222 2656,-222"/>
</g>
<g id="clust27" class="cluster">
<title>cluster_CourseselectionPageModule</title>
<polygon fill="none" stroke="#000000" stroke-dasharray="1,5" points="4366,-70 4366,-198 4558,-198 4558,-70 4366,-70"/>
</g>
<g id="clust28" class="cluster">
<title>cluster_CourseselectionPageModule_declarations</title>
<polygon fill="none" stroke="#000000" points="4388,-78 4388,-130 4536,-130 4536,-78 4388,-78"/>
</g>
<g id="clust34" class="cluster">
<title>cluster_EventDetailsPageModule</title>
<polygon fill="none" stroke="#000000" stroke-dasharray="1,5" points="4002,-138 4002,-274 4258,-274 4258,-138 4002,-138"/>
</g>
<g id="clust35" class="cluster">
<title>cluster_EventDetailsPageModule_declarations</title>
<polygon fill="none" stroke="#000000" points="4118,-146 4118,-198 4250,-198 4250,-146 4118,-146"/>
</g>
<g id="clust37" class="cluster">
<title>cluster_EventDetailsPageModule_imports</title>
<polygon fill="none" stroke="#000000" points="4010,-146 4010,-198 4110,-198 4110,-146 4010,-146"/>
</g>
<g id="clust41" class="cluster">
<title>cluster_EventsPageModule</title>
<polygon fill="none" stroke="#000000" stroke-dasharray="1,5" points="3174,-138 3174,-274 3314,-274 3314,-138 3174,-138"/>
</g>
<g id="clust42" class="cluster">
<title>cluster_EventsPageModule_declarations</title>
<polygon fill="none" stroke="#000000" points="3195,-146 3195,-198 3293,-198 3293,-146 3195,-146"/>
</g>
<g id="clust48" class="cluster">
<title>cluster_IntroPageModule</title>
<polygon fill="none" stroke="#000000" stroke-dasharray="1,5" points="2878,-70 2878,-198 3008,-198 3008,-70 2878,-70"/>
</g>
<g id="clust49" class="cluster">
<title>cluster_IntroPageModule_declarations</title>
<polygon fill="none" stroke="#000000" points="2900,-78 2900,-130 2986,-130 2986,-78 2900,-78"/>
</g>
<g id="clust55" class="cluster">
<title>cluster_LecturesPageModule</title>
<polygon fill="none" stroke="#000000" stroke-dasharray="1,5" points="3016,-70 3016,-198 3166,-198 3166,-70 3016,-70"/>
</g>
<g id="clust56" class="cluster">
<title>cluster_LecturesPageModule_declarations</title>
<polygon fill="none" stroke="#000000" points="3037,-78 3037,-130 3145,-130 3145,-78 3037,-78"/>
</g>
<g id="clust62" class="cluster">
<title>cluster_PipeModule</title>
<polygon fill="none" stroke="#000000" stroke-dasharray="1,5" points="3750,-214 3750,-282 3994,-282 3994,-214 3750,-214"/>
</g>
<g id="clust63" class="cluster">
<title>cluster_PipeModule_declarations</title>
<polygon fill="none" stroke="#000000" points="3878,-222 3878,-274 3986,-274 3986,-222 3878,-222"/>
</g>
<g id="clust66" class="cluster">
<title>cluster_PipeModule_exports</title>
<polygon fill="none" stroke="#000000" points="3758,-222 3758,-274 3870,-274 3870,-222 3758,-222"/>
</g>
<g id="clust69" class="cluster">
<title>cluster_SettingsPageModule</title>
<polygon fill="none" stroke="#000000" stroke-dasharray="1,5" points="4566,-70 4566,-198 4714,-198 4714,-70 4566,-70"/>
</g>
<g id="clust70" class="cluster">
<title>cluster_SettingsPageModule_declarations</title>
<polygon fill="none" stroke="#000000" points="4588,-78 4588,-130 4692,-130 4692,-78 4588,-78"/>
</g>
<!-- AppComponent -->
<g id="node1" class="node">
<title>AppComponent</title>
<polygon fill="#ffffb3" stroke="#000000" points="1473.9399,-122 1368.0601,-122 1368.0601,-86 1473.9399,-86 1473.9399,-122"/>
<text text-anchor="middle" x="1421" y="-99.8" font-family="Times,serif" font-size="14.00" fill="#000000">AppComponent</text>
</g>
<!-- AppModule -->
<g id="node2" class="node">
<title>AppModule</title>
<polygon fill="#8dd3c7" stroke="#000000" points="1355.6571,-190 1352.6571,-194 1331.6571,-194 1328.6571,-190 1272.3429,-190 1272.3429,-154 1355.6571,-154 1355.6571,-190"/>
<text text-anchor="middle" x="1314" y="-167.8" font-family="Times,serif" font-size="14.00" fill="#000000">AppModule</text>
</g>
<!-- AppComponent&#45;&gt;AppModule -->
<g id="edge1" class="edge">
<title>AppComponent&#45;&gt;AppModule</title>
<path fill="none" stroke="#000000" d="M1368.1516,-104C1357.6684,-104 1349.8213,-104 1349.8213,-104 1349.8213,-104 1349.8213,-143.7772 1349.8213,-143.7772"/>
<polygon fill="#000000" stroke="#000000" points="1346.3214,-143.7772 1349.8213,-153.7772 1353.3214,-143.7773 1346.3214,-143.7772"/>
</g>
<!-- AppComponent  -->
<g id="node8" class="node">
<title>AppComponent </title>
<polygon fill="#80b1d3" stroke="#000000" points="1368.439,-266 1259.561,-266 1259.561,-230 1368.439,-230 1368.439,-266"/>
<text text-anchor="middle" x="1314" y="-243.8" font-family="Times,serif" font-size="14.00" fill="#000000">AppComponent </text>
</g>
<!-- AppModule&#45;&gt;AppComponent  -->
<g id="edge7" class="edge">
<title>AppModule&#45;&gt;AppComponent </title>
<path fill="none" stroke="#000000" stroke-dasharray="1,5" d="M1314,-190.0109C1314,-190.0109 1314,-219.855 1314,-219.855"/>
<polygon fill="#000000" stroke="#000000" points="1310.5001,-219.8549 1314,-229.855 1317.5001,-219.855 1310.5001,-219.8549"/>
</g>
<!-- BrowserModule -->
<g id="node3" class="node">
<title>BrowserModule</title>
<polygon fill="#8dd3c7" stroke="#000000" points="1604.4734,-122 1601.4734,-126 1580.4734,-126 1577.4734,-122 1497.5266,-122 1497.5266,-86 1604.4734,-86 1604.4734,-122"/>
<text text-anchor="middle" x="1551" y="-99.8" font-family="Times,serif" font-size="14.00" fill="#000000">BrowserModule</text>
</g>
<!-- BrowserModule&#45;&gt;AppModule -->
<g id="edge2" class="edge">
<title>BrowserModule&#45;&gt;AppModule</title>
<path fill="none" stroke="#000000" d="M1551,-122.302C1551,-140.2699 1551,-165 1551,-165 1551,-165 1365.8253,-165 1365.8253,-165"/>
<polygon fill="#000000" stroke="#000000" points="1365.8253,-161.5001 1355.8253,-165 1365.8253,-168.5001 1365.8253,-161.5001"/>
</g>
<!-- HttpClientModule -->
<g id="node4" class="node">
<title>HttpClientModule</title>
<polygon fill="#8dd3c7" stroke="#000000" points="1888.1611,-122 1885.1611,-126 1864.1611,-126 1861.1611,-122 1769.8389,-122 1769.8389,-86 1888.1611,-86 1888.1611,-122"/>
<text text-anchor="middle" x="1829" y="-99.8" font-family="Times,serif" font-size="14.00" fill="#000000">HttpClientModule</text>
</g>
<!-- HttpClientModule&#45;&gt;AppModule -->
<g id="edge3" class="edge">
<title>HttpClientModule&#45;&gt;AppModule</title>
<path fill="none" stroke="#000000" d="M1848.7768,-122.2843C1848.7768,-143.3211 1848.7768,-175 1848.7768,-175 1848.7768,-175 1365.963,-175 1365.963,-175"/>
<polygon fill="#000000" stroke="#000000" points="1365.9631,-171.5001 1355.963,-175 1365.963,-178.5001 1365.9631,-171.5001"/>
</g>
<!-- CoreModule -->
<g id="node24" class="node">
<title>CoreModule</title>
<polygon fill="#8dd3c7" stroke="#000000" points="2768.2619,-190 2765.2619,-194 2744.2619,-194 2741.2619,-190 2681.7381,-190 2681.7381,-154 2768.2619,-154 2768.2619,-190"/>
<text text-anchor="middle" x="2725" y="-167.8" font-family="Times,serif" font-size="14.00" fill="#000000">CoreModule</text>
</g>
<!-- HttpClientModule&#45;&gt;CoreModule -->
<g id="edge23" class="edge">
<title>HttpClientModule&#45;&gt;CoreModule</title>
<path fill="none" stroke="#000000" d="M1809.2232,-122.0579C1809.2232,-126.4945 1809.2232,-130 1809.2232,-130 1809.2232,-130 2698.9715,-130 2698.9715,-130 2698.9715,-130 2698.9715,-143.9445 2698.9715,-143.9445"/>
<polygon fill="#000000" stroke="#000000" points="2695.4716,-143.9444 2698.9715,-153.9445 2702.4716,-143.9445 2695.4716,-143.9444"/>
</g>
<!-- IonicModule.forRoot() -->
<g id="node5" class="node">
<title>IonicModule.forRoot()</title>
<polygon fill="#8dd3c7" stroke="#000000" points="2280.1855,-122 2277.1855,-126 2256.1855,-126 2253.1855,-122 2135.8145,-122 2135.8145,-86 2280.1855,-86 2280.1855,-122"/>
<text text-anchor="middle" x="2208" y="-99.8" font-family="Times,serif" font-size="14.00" fill="#000000">IonicModule.forRoot()</text>
</g>
<!-- IonicModule.forRoot()&#45;&gt;AppModule -->
<g id="edge4" class="edge">
<title>IonicModule.forRoot()&#45;&gt;AppModule</title>
<path fill="none" stroke="#000000" d="M2171.8287,-122.3802C2171.8287,-146.2785 2171.8287,-185 2171.8287,-185 2171.8287,-185 1365.6648,-185 1365.6648,-185"/>
<polygon fill="#000000" stroke="#000000" points="1365.6648,-181.5001 1355.6648,-185 1365.6647,-188.5001 1365.6648,-181.5001"/>
</g>
<!-- EventDetailsPageModule -->
<g id="node29" class="node">
<title>EventDetailsPageModule</title>
<polygon fill="#8dd3c7" stroke="#000000" points="4249.5716,-266 4246.5716,-270 4225.5716,-270 4222.5716,-266 4090.4284,-266 4090.4284,-230 4249.5716,-230 4249.5716,-266"/>
<text text-anchor="middle" x="4170" y="-243.8" font-family="Times,serif" font-size="14.00" fill="#000000">EventDetailsPageModule</text>
</g>
<!-- IonicModule.forRoot()&#45;&gt;EventDetailsPageModule -->
<g id="edge35" class="edge">
<title>IonicModule.forRoot()&#45;&gt;EventDetailsPageModule</title>
<path fill="none" stroke="#000000" d="M2208,-122.1789C2208,-155.2788 2208,-222 2208,-222 2208,-222 4092.4233,-222 4092.4233,-222 4092.4233,-222 4092.4233,-222.7942 4092.4233,-222.7942"/>
<polygon fill="#000000" stroke="#000000" points="4088.9234,-219.9421 4092.4233,-229.9421 4095.9234,-219.9422 4088.9234,-219.9421"/>
</g>
<!-- EventsPageModule -->
<g id="node32" class="node">
<title>EventsPageModule</title>
<polygon fill="#8dd3c7" stroke="#000000" points="3306.3641,-266 3303.3641,-270 3282.3641,-270 3279.3641,-266 3181.6359,-266 3181.6359,-230 3306.3641,-230 3306.3641,-266"/>
<text text-anchor="middle" x="3244" y="-243.8" font-family="Times,serif" font-size="14.00" fill="#000000">EventsPageModule</text>
</g>
<!-- IonicModule.forRoot()&#45;&gt;EventsPageModule -->
<g id="edge41" class="edge">
<title>IonicModule.forRoot()&#45;&gt;EventsPageModule</title>
<path fill="none" stroke="#000000" d="M2280.3515,-110C2445.4963,-110 2836.0468,-110 2836.0468,-110 2836.0468,-110 2836.0468,-248 2836.0468,-248 2836.0468,-248 3171.5966,-248 3171.5966,-248"/>
<polygon fill="#000000" stroke="#000000" points="3171.5966,-251.5001 3181.5966,-248 3171.5966,-244.5001 3171.5966,-251.5001"/>
</g>
<!-- IntroPageModule -->
<g id="node34" class="node">
<title>IntroPageModule</title>
<polygon fill="#8dd3c7" stroke="#000000" points="2999.9734,-190 2996.9734,-194 2975.9734,-194 2972.9734,-190 2886.0266,-190 2886.0266,-154 2999.9734,-154 2999.9734,-190"/>
<text text-anchor="middle" x="2943" y="-167.8" font-family="Times,serif" font-size="14.00" fill="#000000">IntroPageModule</text>
</g>
<!-- IonicModule.forRoot()&#45;&gt;IntroPageModule -->
<g id="edge47" class="edge">
<title>IonicModule.forRoot()&#45;&gt;IntroPageModule</title>
<path fill="none" stroke="#000000" d="M2280.4224,-98C2457.295,-98 2896.9007,-98 2896.9007,-98 2896.9007,-98 2896.9007,-143.7079 2896.9007,-143.7079"/>
<polygon fill="#000000" stroke="#000000" points="2893.4008,-143.7078 2896.9007,-153.7079 2900.4008,-143.7079 2893.4008,-143.7078"/>
</g>
<!-- LecturesPageModule -->
<g id="node36" class="node">
<title>LecturesPageModule</title>
<polygon fill="#8dd3c7" stroke="#000000" points="3158.4538,-190 3155.4538,-194 3134.4538,-194 3131.4538,-190 3023.5462,-190 3023.5462,-154 3158.4538,-154 3158.4538,-190"/>
<text text-anchor="middle" x="3091" y="-167.8" font-family="Times,serif" font-size="14.00" fill="#000000">LecturesPageModule</text>
</g>
<!-- IonicModule.forRoot()&#45;&gt;LecturesPageModule -->
<g id="edge52" class="edge">
<title>IonicModule.forRoot()&#45;&gt;LecturesPageModule</title>
<path fill="none" stroke="#000000" d="M2244.1713,-122.1543C2244.1713,-123.2969 2244.1713,-124 2244.1713,-124 2244.1713,-124 3034.4106,-124 3034.4106,-124 3034.4106,-124 3034.4106,-143.8533 3034.4106,-143.8533"/>
<polygon fill="#000000" stroke="#000000" points="3030.9106,-143.8532 3034.4106,-153.8533 3037.9106,-143.8533 3030.9106,-143.8532"/>
</g>
<!-- IonicStorageModule.forRoot(args) -->
<g id="node6" class="node">
<title>IonicStorageModule.forRoot(args)</title>
<polygon fill="#8dd3c7" stroke="#000000" points="2117.2681,-122 2114.2681,-126 2093.2681,-126 2090.2681,-122 1906.7319,-122 1906.7319,-86 2117.2681,-86 2117.2681,-122"/>
<text text-anchor="middle" x="2012" y="-99.8" font-family="Times,serif" font-size="14.00" fill="#000000">IonicStorageModule.forRoot(args)</text>
</g>
<!-- IonicStorageModule.forRoot(args)&#45;&gt;AppModule -->
<g id="edge5" class="edge">
<title>IonicStorageModule.forRoot(args)&#45;&gt;AppModule</title>
<path fill="none" stroke="#000000" d="M2047.128,-122.0109C2047.128,-144.4852 2047.128,-180 2047.128,-180 2047.128,-180 1365.7826,-180 1365.7826,-180"/>
<polygon fill="#000000" stroke="#000000" points="1365.7827,-176.5001 1355.7826,-180 1365.7826,-183.5001 1365.7827,-176.5001"/>
</g>
<!-- IonicStorageModule.forRoot(args)&#45;&gt;CoreModule -->
<g id="edge25" class="edge">
<title>IonicStorageModule.forRoot(args)&#45;&gt;CoreModule</title>
<path fill="none" stroke="#000000" d="M1976.872,-122.1686C1976.872,-126.0459 1976.872,-129 1976.872,-129 1976.872,-129 2716.3238,-129 2716.3238,-129 2716.3238,-129 2716.3238,-143.5146 2716.3238,-143.5146"/>
<polygon fill="#000000" stroke="#000000" points="2712.8239,-143.5145 2716.3238,-153.5146 2719.8239,-143.5146 2712.8239,-143.5145"/>
</g>
<!-- AppRoutingModule -->
<g id="node7" class="node">
<title>AppRoutingModule</title>
<polygon fill="#8dd3c7" stroke="#000000" points="1751.2744,-122 1748.2744,-126 1727.2744,-126 1724.2744,-122 1622.7256,-122 1622.7256,-86 1751.2744,-86 1751.2744,-122"/>
<text text-anchor="middle" x="1687" y="-99.8" font-family="Times,serif" font-size="14.00" fill="#000000">AppRoutingModule</text>
</g>
<!-- AppRoutingModule&#45;&gt;AppModule -->
<g id="edge6" class="edge">
<title>AppRoutingModule&#45;&gt;AppModule</title>
<path fill="none" stroke="#000000" d="M1687,-122.0348C1687,-141.5762 1687,-170 1687,-170 1687,-170 1365.7021,-170 1365.7021,-170"/>
<polygon fill="#000000" stroke="#000000" points="1365.7021,-166.5001 1355.7021,-170 1365.7021,-173.5001 1365.7021,-166.5001"/>
</g>
<!-- RouterModule  -->
<g id="node17" class="node">
<title>RouterModule </title>
<polygon fill="#fb8072" stroke="#000000" points="2421.6523,-190 2320.3477,-190 2320.3477,-154 2421.6523,-154 2421.6523,-190"/>
<text text-anchor="middle" x="2371" y="-167.8" font-family="Times,serif" font-size="14.00" fill="#000000">RouterModule </text>
</g>
<!-- AppRoutingModule&#45;&gt;RouterModule  -->
<g id="edge16" class="edge">
<title>AppRoutingModule&#45;&gt;RouterModule </title>
<path fill="none" stroke="#000000" stroke-dasharray="5,2" d="M1719.1936,-122.027C1719.1936,-138.3976 1719.1936,-160 1719.1936,-160 1719.1936,-160 2310.3962,-160 2310.3962,-160"/>
<polygon fill="#000000" stroke="#000000" points="2310.3962,-163.5001 2320.3962,-160 2310.3962,-156.5001 2310.3962,-163.5001"/>
</g>
<!-- StatusBar -->
<g id="node9" class="node">
<title>StatusBar</title>
<ellipse fill="#fdb462" stroke="#000000" cx="685" cy="-104" rx="48.6694" ry="18"/>
<text text-anchor="middle" x="685" y="-99.8" font-family="Times,serif" font-size="14.00" fill="#000000">StatusBar</text>
</g>
<!-- StatusBar&#45;&gt;AppModule -->
<g id="edge8" class="edge">
<title>StatusBar&#45;&gt;AppModule</title>
<path fill="none" stroke="#000000" d="M685,-122.027C685,-138.3976 685,-160 685,-160 685,-160 1262.2424,-160 1262.2424,-160"/>
<polygon fill="#000000" stroke="#000000" points="1262.2425,-163.5001 1272.2424,-160 1262.2424,-156.5001 1262.2425,-163.5001"/>
</g>
<!-- SplashScreen -->
<g id="node10" class="node">
<title>SplashScreen</title>
<ellipse fill="#fdb462" stroke="#000000" cx="555" cy="-104" rx="63.1189" ry="18"/>
<text text-anchor="middle" x="555" y="-99.8" font-family="Times,serif" font-size="14.00" fill="#000000">SplashScreen</text>
</g>
<!-- SplashScreen&#45;&gt;AppModule -->
<g id="edge9" class="edge">
<title>SplashScreen&#45;&gt;AppModule</title>
<path fill="none" stroke="#000000" d="M555,-122.2667C555,-140.5552 555,-166 555,-166 555,-166 1262.1117,-166 1262.1117,-166"/>
<polygon fill="#000000" stroke="#000000" points="1262.1118,-169.5001 1272.1117,-166 1262.1117,-162.5001 1262.1118,-169.5001"/>
</g>
<!-- HttpService -->
<g id="node11" class="node">
<title>HttpService</title>
<ellipse fill="#fdb462" stroke="#000000" cx="417" cy="-104" rx="57.3185" ry="18"/>
<text text-anchor="middle" x="417" y="-99.8" font-family="Times,serif" font-size="14.00" fill="#000000">HttpService</text>
</g>
<!-- HttpService&#45;&gt;AppModule -->
<g id="edge10" class="edge">
<title>HttpService&#45;&gt;AppModule</title>
<path fill="none" stroke="#000000" d="M417,-122.2228C417,-142.3652 417,-172 417,-172 417,-172 1262.2374,-172 1262.2374,-172"/>
<polygon fill="#000000" stroke="#000000" points="1262.2374,-175.5001 1272.2374,-172 1262.2373,-168.5001 1262.2374,-175.5001"/>
</g>
<!-- BackgroundMode -->
<g id="node12" class="node">
<title>BackgroundMode</title>
<ellipse fill="#fdb462" stroke="#000000" cx="261" cy="-104" rx="80.5277" ry="18"/>
<text text-anchor="middle" x="261" y="-99.8" font-family="Times,serif" font-size="14.00" fill="#000000">BackgroundMode</text>
</g>
<!-- BackgroundMode&#45;&gt;AppModule -->
<g id="edge11" class="edge">
<title>BackgroundMode&#45;&gt;AppModule</title>
<path fill="none" stroke="#000000" d="M261,-122.2921C261,-144.2057 261,-178 261,-178 261,-178 1262.0713,-178 1262.0713,-178"/>
<polygon fill="#000000" stroke="#000000" points="1262.0714,-181.5001 1272.0713,-178 1262.0713,-174.5001 1262.0714,-181.5001"/>
</g>
<!-- StorageService -->
<g id="node13" class="node">
<title>StorageService</title>
<ellipse fill="#fdb462" stroke="#000000" cx="93" cy="-104" rx="69.4781" ry="18"/>
<text text-anchor="middle" x="93" y="-99.8" font-family="Times,serif" font-size="14.00" fill="#000000">StorageService</text>
</g>
<!-- StorageService&#45;&gt;AppModule -->
<g id="edge12" class="edge">
<title>StorageService&#45;&gt;AppModule</title>
<path fill="none" stroke="#000000" d="M93,-122.1532C93,-145.7566 93,-184 93,-184 93,-184 1262.3236,-184 1262.3236,-184"/>
<polygon fill="#000000" stroke="#000000" points="1262.3237,-187.5001 1272.3236,-184 1262.3236,-180.5001 1262.3237,-187.5001"/>
</g>
<!-- Utils -->
<g id="node14" class="node">
<title>Utils</title>
<ellipse fill="#fdb462" stroke="#000000" cx="1314" cy="-104" rx="29.63" ry="18"/>
<text text-anchor="middle" x="1314" y="-99.8" font-family="Times,serif" font-size="14.00" fill="#000000">Utils</text>
</g>
<!-- Utils&#45;&gt;AppModule -->
<g id="edge13" class="edge">
<title>Utils&#45;&gt;AppModule</title>
<path fill="none" stroke="#000000" d="M1314,-122.2228C1314,-122.2228 1314,-143.7269 1314,-143.7269"/>
<polygon fill="#000000" stroke="#000000" points="1310.5001,-143.7269 1314,-153.7269 1317.5001,-143.727 1310.5001,-143.7269"/>
</g>
<!-- { provide: RouteReuseStrategy, useClass: IonicRouteStrategy } -->
<g id="node15" class="node">
<title>{ provide: RouteReuseStrategy, useClass: IonicRouteStrategy }</title>
<ellipse fill="#fdb462" stroke="#000000" cx="1009" cy="-104" rx="257.2723" ry="18"/>
<text text-anchor="middle" x="1009" y="-99.8" font-family="Times,serif" font-size="14.00" fill="#000000">{ provide: RouteReuseStrategy, useClass: IonicRouteStrategy }</text>
</g>
<!-- { provide: RouteReuseStrategy, useClass: IonicRouteStrategy }&#45;&gt;AppModule -->
<g id="edge14" class="edge">
<title>{ provide: RouteReuseStrategy, useClass: IonicRouteStrategy }&#45;&gt;AppModule</title>
<path fill="none" stroke="#000000" d="M1266.6124,-104C1273.9728,-104 1278.1787,-104 1278.1787,-104 1278.1787,-104 1278.1787,-143.7772 1278.1787,-143.7772"/>
<polygon fill="#000000" stroke="#000000" points="1274.6788,-143.7772 1278.1787,-153.7772 1281.6788,-143.7773 1274.6788,-143.7772"/>
</g>
<!-- RouterModule.forRoot(args) -->
<g id="node16" class="node">
<title>RouterModule.forRoot(args)</title>
<polygon fill="#8dd3c7" stroke="#000000" points="2623.8419,-190 2620.8419,-194 2599.8419,-194 2596.8419,-190 2446.1581,-190 2446.1581,-154 2623.8419,-154 2623.8419,-190"/>
<text text-anchor="middle" x="2535" y="-167.8" font-family="Times,serif" font-size="14.00" fill="#000000">RouterModule.forRoot(args)</text>
</g>
<!-- RouterModule.forRoot(args)&#45;&gt;AppRoutingModule -->
<g id="edge15" class="edge">
<title>RouterModule.forRoot(args)&#45;&gt;AppRoutingModule</title>
<path fill="none" stroke="#000000" d="M2535,-153.8726C2535,-143.2891 2535,-132 2535,-132 2535,-132 1654.8065,-132 1654.8065,-132 1654.8065,-132 1654.8065,-131.0207 1654.8065,-131.0207"/>
<polygon fill="#000000" stroke="#000000" points="1658.3066,-132.2069 1654.8065,-122.207 1651.3066,-132.207 1658.3066,-132.2069"/>
</g>
<!-- CantinePage -->
<g id="node18" class="node">
<title>CantinePage</title>
<polygon fill="#ffffb3" stroke="#000000" points="3424.2591,-122 3337.7409,-122 3337.7409,-86 3424.2591,-86 3424.2591,-122"/>
<text text-anchor="middle" x="3381" y="-99.8" font-family="Times,serif" font-size="14.00" fill="#000000">CantinePage</text>
</g>
<!-- CantinePageModule -->
<g id="node19" class="node">
<title>CantinePageModule</title>
<polygon fill="#8dd3c7" stroke="#000000" points="3733.309,-190 3730.309,-194 3709.309,-194 3706.309,-190 3602.691,-190 3602.691,-154 3733.309,-154 3733.309,-190"/>
<text text-anchor="middle" x="3668" y="-167.8" font-family="Times,serif" font-size="14.00" fill="#000000">CantinePageModule</text>
</g>
<!-- CantinePage&#45;&gt;CantinePageModule -->
<g id="edge17" class="edge">
<title>CantinePage&#45;&gt;CantinePageModule</title>
<path fill="none" stroke="#000000" d="M3381,-122.2921C3381,-144.2057 3381,-178 3381,-178 3381,-178 3592.5161,-178 3592.5161,-178"/>
<polygon fill="#000000" stroke="#000000" points="3592.5162,-181.5001 3602.5161,-178 3592.5161,-174.5001 3592.5162,-181.5001"/>
</g>
<!-- CommonModule -->
<g id="node20" class="node">
<title>CommonModule</title>
<polygon fill="#8dd3c7" stroke="#000000" points="3559.6681,-122 3556.6681,-126 3535.6681,-126 3532.6681,-122 3448.3319,-122 3448.3319,-86 3559.6681,-86 3559.6681,-122"/>
<text text-anchor="middle" x="3504" y="-99.8" font-family="Times,serif" font-size="14.00" fill="#000000">CommonModule</text>
</g>
<!-- CommonModule&#45;&gt;CantinePageModule -->
<g id="edge18" class="edge">
<title>CommonModule&#45;&gt;CantinePageModule</title>
<path fill="none" stroke="#000000" d="M3548.667,-122.2667C3548.667,-140.5552 3548.667,-166 3548.667,-166 3548.667,-166 3592.7471,-166 3592.7471,-166"/>
<polygon fill="#000000" stroke="#000000" points="3592.7471,-169.5001 3602.7471,-166 3592.747,-162.5001 3592.7471,-169.5001"/>
</g>
<!-- CommonModule&#45;&gt;CoreModule -->
<g id="edge22" class="edge">
<title>CommonModule&#45;&gt;CoreModule</title>
<path fill="none" stroke="#000000" d="M3459.333,-122.1679C3459.333,-124.4478 3459.333,-126 3459.333,-126 3459.333,-126 2733.6762,-126 2733.6762,-126 2733.6762,-126 2733.6762,-143.8196 2733.6762,-143.8196"/>
<polygon fill="#000000" stroke="#000000" points="2730.1763,-143.8195 2733.6762,-153.8196 2737.1763,-143.8196 2730.1763,-143.8195"/>
</g>
<!-- CourseselectionPageModule -->
<g id="node27" class="node">
<title>CourseselectionPageModule</title>
<polygon fill="#8dd3c7" stroke="#000000" points="4550.1783,-190 4547.1783,-194 4526.1783,-194 4523.1783,-190 4373.8217,-190 4373.8217,-154 4550.1783,-154 4550.1783,-190"/>
<text text-anchor="middle" x="4462" y="-167.8" font-family="Times,serif" font-size="14.00" fill="#000000">CourseselectionPageModule</text>
</g>
<!-- CommonModule&#45;&gt;CourseselectionPageModule -->
<g id="edge28" class="edge">
<title>CommonModule&#45;&gt;CourseselectionPageModule</title>
<path fill="none" stroke="#000000" d="M3526.3335,-122.1097C3526.3335,-131.897 3526.3335,-142 3526.3335,-142 3526.3335,-142 4378.2659,-142 4378.2659,-142 4378.2659,-142 4378.2659,-143.8568 4378.2659,-143.8568"/>
<polygon fill="#000000" stroke="#000000" points="4374.766,-143.8568 4378.2659,-153.8568 4381.766,-143.8568 4374.766,-143.8568"/>
</g>
<!-- CommonModule&#45;&gt;EventDetailsPageModule -->
<g id="edge33" class="edge">
<title>CommonModule&#45;&gt;EventDetailsPageModule</title>
<path fill="none" stroke="#000000" d="M3504,-122.1643C3504,-153.4073 3504,-214 3504,-214 3504,-214 4094.3824,-214 4094.3824,-214 4094.3824,-214 4094.3824,-219.8056 4094.3824,-219.8056"/>
<polygon fill="#000000" stroke="#000000" points="4090.8825,-219.8055 4094.3824,-229.8056 4097.8825,-219.8056 4090.8825,-219.8055"/>
</g>
<!-- PipeModule -->
<g id="node30" class="node">
<title>PipeModule</title>
<polygon fill="#8dd3c7" stroke="#000000" points="4102.4387,-190 4099.4387,-194 4078.4387,-194 4075.4387,-190 4017.5613,-190 4017.5613,-154 4102.4387,-154 4102.4387,-190"/>
<text text-anchor="middle" x="4060" y="-167.8" font-family="Times,serif" font-size="14.00" fill="#000000">PipeModule</text>
</g>
<!-- CommonModule&#45;&gt;PipeModule -->
<g id="edge55" class="edge">
<title>CommonModule&#45;&gt;PipeModule</title>
<path fill="none" stroke="#000000" d="M3515.1668,-122.1505C3515.1668,-134.2708 3515.1668,-148 3515.1668,-148 3515.1668,-148 4060,-148 4060,-148 4060,-148 4060,-148.581 4060,-148.581"/>
<polygon fill="#000000" stroke="#000000" points="4056.5002,-143.8097 4060,-153.8097 4063.5002,-143.8098 4056.5002,-143.8097"/>
</g>
<!-- CommonModule&#45;&gt;EventsPageModule -->
<g id="edge39" class="edge">
<title>CommonModule&#45;&gt;EventsPageModule</title>
<path fill="none" stroke="#000000" d="M3492.8332,-122.0718C3492.8332,-158.6481 3492.8332,-238 3492.8332,-238 3492.8332,-238 3316.4699,-238 3316.4699,-238"/>
<polygon fill="#000000" stroke="#000000" points="3316.47,-234.5001 3306.4699,-238 3316.4699,-241.5001 3316.47,-234.5001"/>
</g>
<!-- CommonModule&#45;&gt;IntroPageModule -->
<g id="edge45" class="edge">
<title>CommonModule&#45;&gt;IntroPageModule</title>
<path fill="none" stroke="#000000" d="M3470.4997,-122.1274C3470.4997,-132.7109 3470.4997,-144 3470.4997,-144 3470.4997,-144 2983.6555,-144 2983.6555,-144 2983.6555,-144 2983.6555,-144.9793 2983.6555,-144.9793"/>
<polygon fill="#000000" stroke="#000000" points="2980.1556,-143.793 2983.6555,-153.793 2987.1556,-143.7931 2980.1556,-143.793"/>
</g>
<!-- CommonModule&#45;&gt;LecturesPageModule -->
<g id="edge50" class="edge">
<title>CommonModule&#45;&gt;LecturesPageModule</title>
<path fill="none" stroke="#000000" d="M3481.6665,-122.1804C3481.6665,-135.0382 3481.6665,-150 3481.6665,-150 3481.6665,-150 3142.1457,-150 3142.1457,-150 3142.1457,-150 3142.1457,-150.3832 3142.1457,-150.3832"/>
<polygon fill="#000000" stroke="#000000" points="3138.646,-143.832 3142.1457,-153.8321 3145.646,-143.8322 3138.646,-143.832"/>
</g>
<!-- SettingsPageModule -->
<g id="node40" class="node">
<title>SettingsPageModule</title>
<polygon fill="#8dd3c7" stroke="#000000" points="4705.8753,-190 4702.8753,-194 4681.8753,-194 4678.8753,-190 4574.1247,-190 4574.1247,-154 4705.8753,-154 4705.8753,-190"/>
<text text-anchor="middle" x="4640" y="-167.8" font-family="Times,serif" font-size="14.00" fill="#000000">SettingsPageModule</text>
</g>
<!-- CommonModule&#45;&gt;SettingsPageModule -->
<g id="edge58" class="edge">
<title>CommonModule&#45;&gt;SettingsPageModule</title>
<path fill="none" stroke="#000000" d="M3537.5003,-122.1944C3537.5003,-130.2782 3537.5003,-138 3537.5003,-138 3537.5003,-138 4578.4174,-138 4578.4174,-138 4578.4174,-138 4578.4174,-143.8056 4578.4174,-143.8056"/>
<polygon fill="#000000" stroke="#000000" points="4574.9175,-143.8055 4578.4174,-153.8056 4581.9175,-143.8056 4574.9175,-143.8055"/>
</g>
<!-- FormsModule -->
<g id="node21" class="node">
<title>FormsModule</title>
<polygon fill="#8dd3c7" stroke="#000000" points="3871.8288,-122 3868.8288,-126 3847.8288,-126 3844.8288,-122 3776.1712,-122 3776.1712,-86 3871.8288,-86 3871.8288,-122"/>
<text text-anchor="middle" x="3824" y="-99.8" font-family="Times,serif" font-size="14.00" fill="#000000">FormsModule</text>
</g>
<!-- FormsModule&#45;&gt;CantinePageModule -->
<g id="edge19" class="edge">
<title>FormsModule&#45;&gt;CantinePageModule</title>
<path fill="none" stroke="#000000" d="M3833.612,-122.0336C3833.612,-139.0597 3833.612,-162 3833.612,-162 3833.612,-162 3743.4542,-162 3743.4542,-162"/>
<polygon fill="#000000" stroke="#000000" points="3743.4543,-158.5001 3733.4542,-162 3743.4542,-165.5001 3743.4543,-158.5001"/>
</g>
<!-- FormsModule&#45;&gt;CourseselectionPageModule -->
<g id="edge29" class="edge">
<title>FormsModule&#45;&gt;CourseselectionPageModule</title>
<path fill="none" stroke="#000000" d="M3865.388,-122.32C3865.388,-130.7883 3865.388,-139 3865.388,-139 3865.388,-139 4386.9758,-139 4386.9758,-139 4386.9758,-139 4386.9758,-143.9551 4386.9758,-143.9551"/>
<polygon fill="#000000" stroke="#000000" points="4383.4759,-143.9551 4386.9758,-153.9551 4390.4759,-143.9552 4383.4759,-143.9551"/>
</g>
<!-- FormsModule&#45;&gt;EventDetailsPageModule -->
<g id="edge34" class="edge">
<title>FormsModule&#45;&gt;EventDetailsPageModule</title>
<path fill="none" stroke="#000000" d="M3868.5261,-122.1241C3868.5261,-149.4395 3868.5261,-198 3868.5261,-198 3868.5261,-198 4098.3006,-198 4098.3006,-198 4098.3006,-198 4098.3006,-219.9489 4098.3006,-219.9489"/>
<polygon fill="#000000" stroke="#000000" points="4094.8007,-219.9488 4098.3006,-229.9489 4101.8007,-219.9489 4094.8007,-219.9488"/>
</g>
<!-- FormsModule&#45;&gt;EventsPageModule -->
<g id="edge40" class="edge">
<title>FormsModule&#45;&gt;EventsPageModule</title>
<path fill="none" stroke="#000000" d="M3776.2103,-104C3768.0699,-104 3762.1831,-104 3762.1831,-104 3762.1831,-104 3762.1831,-259 3762.1831,-259 3762.1831,-259 3316.505,-259 3316.505,-259"/>
<polygon fill="#000000" stroke="#000000" points="3316.505,-255.5001 3306.505,-259 3316.5049,-262.5001 3316.505,-255.5001"/>
</g>
<!-- FormsModule&#45;&gt;IntroPageModule -->
<g id="edge46" class="edge">
<title>FormsModule&#45;&gt;IntroPageModule</title>
<path fill="none" stroke="#000000" d="M3790.6549,-122.4854C3790.6549,-134.1399 3790.6549,-147 3790.6549,-147 3790.6549,-147 2994.543,-147 2994.543,-147 2994.543,-147 2994.543,-147.6831 2994.543,-147.6831"/>
<polygon fill="#000000" stroke="#000000" points="2991.0431,-143.8313 2994.543,-153.8314 2998.0431,-143.8314 2991.0431,-143.8313"/>
</g>
<!-- FormsModule&#45;&gt;LecturesPageModule -->
<g id="edge51" class="edge">
<title>FormsModule&#45;&gt;LecturesPageModule</title>
<path fill="none" stroke="#000000" d="M3804.9739,-122.2458C3804.9739,-136.1772 3804.9739,-153 3804.9739,-153 3804.9739,-153 3153.0332,-153 3153.0332,-153 3153.0332,-153 3153.0332,-153.0816 3153.0332,-153.0816"/>
<polygon fill="#000000" stroke="#000000" points="3149.5345,-143.8159 3153.0332,-153.8164 3156.5345,-143.8169 3149.5345,-143.8159"/>
</g>
<!-- FormsModule&#45;&gt;SettingsPageModule -->
<g id="edge59" class="edge">
<title>FormsModule&#45;&gt;SettingsPageModule</title>
<path fill="none" stroke="#000000" d="M3819.293,-122.0328C3819.293,-128.8526 3819.293,-135 3819.293,-135 3819.293,-135 4587.1273,-135 4587.1273,-135 4587.1273,-135 4587.1273,-143.9336 4587.1273,-143.9336"/>
<polygon fill="#000000" stroke="#000000" points="4583.6274,-143.9335 4587.1273,-153.9336 4590.6274,-143.9336 4583.6274,-143.9335"/>
</g>
<!-- IonicModule -->
<g id="node22" class="node">
<title>IonicModule</title>
<polygon fill="#8dd3c7" stroke="#000000" points="3978.3162,-122 3975.3162,-126 3954.3162,-126 3951.3162,-122 3889.6838,-122 3889.6838,-86 3978.3162,-86 3978.3162,-122"/>
<text text-anchor="middle" x="3934" y="-99.8" font-family="Times,serif" font-size="14.00" fill="#000000">IonicModule</text>
</g>
<!-- IonicModule&#45;&gt;CantinePageModule -->
<g id="edge20" class="edge">
<title>IonicModule&#45;&gt;CantinePageModule</title>
<path fill="none" stroke="#000000" d="M3956.0789,-122.1061C3956.0789,-141.3391 3956.0789,-169 3956.0789,-169 3956.0789,-169 3743.3696,-169 3743.3696,-169"/>
<polygon fill="#000000" stroke="#000000" points="3743.3696,-165.5001 3733.3696,-169 3743.3695,-172.5001 3743.3696,-165.5001"/>
</g>
<!-- IonicModule&#45;&gt;CoreModule -->
<g id="edge24" class="edge">
<title>IonicModule&#45;&gt;CoreModule</title>
<path fill="none" stroke="#000000" d="M3911.9211,-122.1223C3911.9211,-124.9729 3911.9211,-127 3911.9211,-127 3911.9211,-127 2751.0285,-127 2751.0285,-127 2751.0285,-127 2751.0285,-143.9561 2751.0285,-143.9561"/>
<polygon fill="#000000" stroke="#000000" points="2747.5286,-143.956 2751.0285,-153.9561 2754.5286,-143.9561 2747.5286,-143.956"/>
</g>
<!-- IonicModule&#45;&gt;CourseselectionPageModule -->
<g id="edge30" class="edge">
<title>IonicModule&#45;&gt;CourseselectionPageModule</title>
<path fill="none" stroke="#000000" d="M3978.2663,-104C4093.0388,-104 4391.3308,-104 4391.3308,-104 4391.3308,-104 4391.3308,-143.7772 4391.3308,-143.7772"/>
<polygon fill="#000000" stroke="#000000" points="4387.8309,-143.7772 4391.3308,-153.7772 4394.8309,-143.7773 4387.8309,-143.7772"/>
</g>
<!-- IonicModule&#45;&gt;SettingsPageModule -->
<g id="edge60" class="edge">
<title>IonicModule&#45;&gt;SettingsPageModule</title>
<path fill="none" stroke="#000000" d="M3934,-122.2015C3934,-128.028 3934,-133 3934,-133 3934,-133 4591.4823,-133 4591.4823,-133 4591.4823,-133 4591.4823,-143.8701 4591.4823,-143.8701"/>
<polygon fill="#000000" stroke="#000000" points="4587.9824,-143.8701 4591.4823,-153.8701 4594.9824,-143.8701 4587.9824,-143.8701"/>
</g>
<!-- RouterModule.forChild(args) -->
<g id="node23" class="node">
<title>RouterModule.forChild(args)</title>
<polygon fill="#8dd3c7" stroke="#000000" points="3758.7323,-122 3755.7323,-126 3734.7323,-126 3731.7323,-122 3577.2677,-122 3577.2677,-86 3758.7323,-86 3758.7323,-122"/>
<text text-anchor="middle" x="3668" y="-99.8" font-family="Times,serif" font-size="14.00" fill="#000000">RouterModule.forChild(args)</text>
</g>
<!-- RouterModule.forChild(args)&#45;&gt;CantinePageModule -->
<g id="edge21" class="edge">
<title>RouterModule.forChild(args)&#45;&gt;CantinePageModule</title>
<path fill="none" stroke="#000000" d="M3668,-122.2228C3668,-122.2228 3668,-143.7269 3668,-143.7269"/>
<polygon fill="#000000" stroke="#000000" points="3664.5001,-143.7269 3668,-153.7269 3671.5001,-143.727 3664.5001,-143.7269"/>
</g>
<!-- RouterModule.forChild(args)&#45;&gt;CourseselectionPageModule -->
<g id="edge31" class="edge">
<title>RouterModule.forChild(args)&#45;&gt;CourseselectionPageModule</title>
<path fill="none" stroke="#000000" d="M3743.339,-122.0664C3743.339,-131.4587 3743.339,-141 3743.339,-141 3743.339,-141 4382.6209,-141 4382.6209,-141 4382.6209,-141 4382.6209,-143.9672 4382.6209,-143.9672"/>
<polygon fill="#000000" stroke="#000000" points="4379.121,-143.9671 4382.6209,-153.9672 4386.121,-143.9672 4379.121,-143.9671"/>
</g>
<!-- RouterModule.forChild(args)&#45;&gt;EventDetailsPageModule -->
<g id="edge37" class="edge">
<title>RouterModule.forChild(args)&#45;&gt;EventDetailsPageModule</title>
<path fill="none" stroke="#000000" d="M3753.5237,-122.2356C3753.5237,-151.5744 3753.5237,-206 3753.5237,-206 3753.5237,-206 4096.3415,-206 4096.3415,-206 4096.3415,-206 4096.3415,-219.9445 4096.3415,-219.9445"/>
<polygon fill="#000000" stroke="#000000" points="4092.8416,-219.9444 4096.3415,-229.9445 4099.8416,-219.9445 4092.8416,-219.9444"/>
</g>
<!-- RouterModule.forChild(args)&#45;&gt;EventsPageModule -->
<g id="edge42" class="edge">
<title>RouterModule.forChild(args)&#45;&gt;EventsPageModule</title>
<path fill="none" stroke="#000000" d="M3596.4803,-122.1446C3596.4803,-160.2265 3596.4803,-245 3596.4803,-245 3596.4803,-245 3316.6102,-245 3316.6102,-245"/>
<polygon fill="#000000" stroke="#000000" points="3316.6103,-241.5001 3306.6102,-245 3316.6102,-248.5001 3316.6103,-241.5001"/>
</g>
<!-- RouterModule.forChild(args)&#45;&gt;IntroPageModule -->
<g id="edge48" class="edge">
<title>RouterModule.forChild(args)&#45;&gt;IntroPageModule</title>
<path fill="none" stroke="#000000" d="M3583.7494,-122.1025C3583.7494,-133.0859 3583.7494,-145 3583.7494,-145 3583.7494,-145 2989.0993,-145 2989.0993,-145 2989.0993,-145 2989.0993,-145.8841 2989.0993,-145.8841"/>
<polygon fill="#000000" stroke="#000000" points="2985.5994,-143.8408 2989.0993,-153.8408 2992.5994,-143.8409 2985.5994,-143.8408"/>
</g>
<!-- RouterModule.forChild(args)&#45;&gt;LecturesPageModule -->
<g id="edge53" class="edge">
<title>RouterModule.forChild(args)&#45;&gt;LecturesPageModule</title>
<path fill="none" stroke="#000000" d="M3590.1148,-122.037C3590.1148,-135.2913 3590.1148,-151 3590.1148,-151 3590.1148,-151 3147.5895,-151 3147.5895,-151 3147.5895,-151 3147.5895,-151.292 3147.5895,-151.292"/>
<polygon fill="#000000" stroke="#000000" points="3144.0898,-143.9198 3147.5895,-153.92 3151.0898,-143.9201 3144.0898,-143.9198"/>
</g>
<!-- RouterModule.forChild(args)&#45;&gt;SettingsPageModule -->
<g id="edge61" class="edge">
<title>RouterModule.forChild(args)&#45;&gt;SettingsPageModule</title>
<path fill="none" stroke="#000000" d="M3748.4314,-122.2434C3748.4314,-129.4297 3748.4314,-136 3748.4314,-136 3748.4314,-136 4582.7724,-136 4582.7724,-136 4582.7724,-136 4582.7724,-143.5782 4582.7724,-143.5782"/>
<polygon fill="#000000" stroke="#000000" points="4579.2725,-143.5781 4582.7724,-153.5782 4586.2725,-143.5782 4579.2725,-143.5781"/>
</g>
<!-- HttpClientModule  -->
<g id="node25" class="node">
<title>HttpClientModule </title>
<polygon fill="#fb8072" stroke="#000000" points="2786.1607,-266 2663.8393,-266 2663.8393,-230 2786.1607,-230 2786.1607,-266"/>
<text text-anchor="middle" x="2725" y="-243.8" font-family="Times,serif" font-size="14.00" fill="#000000">HttpClientModule </text>
</g>
<!-- CoreModule&#45;&gt;HttpClientModule  -->
<g id="edge26" class="edge">
<title>CoreModule&#45;&gt;HttpClientModule </title>
<path fill="none" stroke="#000000" stroke-dasharray="5,2" d="M2725,-190.0109C2725,-190.0109 2725,-219.855 2725,-219.855"/>
<polygon fill="#000000" stroke="#000000" points="2721.5001,-219.8549 2725,-229.855 2728.5001,-219.855 2721.5001,-219.8549"/>
</g>
<!-- CourseselectionPage -->
<g id="node26" class="node">
<title>CourseselectionPage</title>
<polygon fill="#ffffb3" stroke="#000000" points="4528.1289,-122 4395.8711,-122 4395.8711,-86 4528.1289,-86 4528.1289,-122"/>
<text text-anchor="middle" x="4462" y="-99.8" font-family="Times,serif" font-size="14.00" fill="#000000">CourseselectionPage</text>
</g>
<!-- CourseselectionPage&#45;&gt;CourseselectionPageModule -->
<g id="edge27" class="edge">
<title>CourseselectionPage&#45;&gt;CourseselectionPageModule</title>
<path fill="none" stroke="#000000" d="M4462,-122.2228C4462,-122.2228 4462,-143.7269 4462,-143.7269"/>
<polygon fill="#000000" stroke="#000000" points="4458.5001,-143.7269 4462,-153.7269 4465.5001,-143.727 4458.5001,-143.7269"/>
</g>
<!-- EventDetailsPage -->
<g id="node28" class="node">
<title>EventDetailsPage</title>
<polygon fill="#ffffb3" stroke="#000000" points="4241.5228,-190 4126.4772,-190 4126.4772,-154 4241.5228,-154 4241.5228,-190"/>
<text text-anchor="middle" x="4184" y="-167.8" font-family="Times,serif" font-size="14.00" fill="#000000">EventDetailsPage</text>
</g>
<!-- EventDetailsPage&#45;&gt;EventDetailsPageModule -->
<g id="edge32" class="edge">
<title>EventDetailsPage&#45;&gt;EventDetailsPageModule</title>
<path fill="none" stroke="#000000" d="M4184,-190.0109C4184,-190.0109 4184,-219.855 4184,-219.855"/>
<polygon fill="#000000" stroke="#000000" points="4180.5001,-219.8549 4184,-229.855 4187.5001,-219.855 4180.5001,-219.8549"/>
</g>
<!-- PipeModule&#45;&gt;EventDetailsPageModule -->
<g id="edge36" class="edge">
<title>PipeModule&#45;&gt;EventDetailsPageModule</title>
<path fill="none" stroke="#000000" d="M4100.2597,-190.0109C4100.2597,-190.0109 4100.2597,-219.855 4100.2597,-219.855"/>
<polygon fill="#000000" stroke="#000000" points="4096.7598,-219.8549 4100.2597,-229.855 4103.7598,-219.855 4096.7598,-219.8549"/>
</g>
<!-- PipeModule&#45;&gt;EventsPageModule -->
<g id="edge43" class="edge">
<title>PipeModule&#45;&gt;EventsPageModule</title>
<path fill="none" stroke="#000000" d="M4017.6055,-176C3930.2356,-176 3738.2467,-176 3738.2467,-176 3738.2467,-176 3738.2467,-252 3738.2467,-252 3738.2467,-252 3316.5967,-252 3316.5967,-252"/>
<polygon fill="#000000" stroke="#000000" points="3316.5967,-248.5001 3306.5967,-252 3316.5966,-255.5001 3316.5967,-248.5001"/>
</g>
<!-- MultilinePipe  -->
<g id="node38" class="node">
<title>MultilinePipe </title>
<polygon fill="#fb8072" stroke="#000000" points="3862.0013,-266 3765.9987,-266 3765.9987,-230 3862.0013,-230 3862.0013,-266"/>
<text text-anchor="middle" x="3814" y="-243.8" font-family="Times,serif" font-size="14.00" fill="#000000">MultilinePipe </text>
</g>
<!-- PipeModule&#45;&gt;MultilinePipe  -->
<g id="edge56" class="edge">
<title>PipeModule&#45;&gt;MultilinePipe </title>
<path fill="none" stroke="#000000" stroke-dasharray="5,2" d="M4017.5944,-183C3955.7072,-183 3847.931,-183 3847.931,-183 3847.931,-183 3847.931,-219.8939 3847.931,-219.8939"/>
<polygon fill="#000000" stroke="#000000" points="3844.4311,-219.8938 3847.931,-229.8939 3851.4311,-219.8939 3844.4311,-219.8938"/>
</g>
<!-- EventsPage -->
<g id="node31" class="node">
<title>EventsPage</title>
<polygon fill="#ffffb3" stroke="#000000" points="3284.8148,-190 3203.1852,-190 3203.1852,-154 3284.8148,-154 3284.8148,-190"/>
<text text-anchor="middle" x="3244" y="-167.8" font-family="Times,serif" font-size="14.00" fill="#000000">EventsPage</text>
</g>
<!-- EventsPage&#45;&gt;EventsPageModule -->
<g id="edge38" class="edge">
<title>EventsPage&#45;&gt;EventsPageModule</title>
<path fill="none" stroke="#000000" d="M3244,-190.0109C3244,-190.0109 3244,-219.855 3244,-219.855"/>
<polygon fill="#000000" stroke="#000000" points="3240.5001,-219.8549 3244,-229.855 3247.5001,-219.855 3240.5001,-219.8549"/>
</g>
<!-- IntroPage -->
<g id="node33" class="node">
<title>IntroPage</title>
<polygon fill="#ffffb3" stroke="#000000" points="2978.4249,-122 2907.5751,-122 2907.5751,-86 2978.4249,-86 2978.4249,-122"/>
<text text-anchor="middle" x="2943" y="-99.8" font-family="Times,serif" font-size="14.00" fill="#000000">IntroPage</text>
</g>
<!-- IntroPage&#45;&gt;IntroPageModule -->
<g id="edge44" class="edge">
<title>IntroPage&#45;&gt;IntroPageModule</title>
<path fill="none" stroke="#000000" d="M2943,-122.2228C2943,-122.2228 2943,-143.7269 2943,-143.7269"/>
<polygon fill="#000000" stroke="#000000" points="2939.5001,-143.7269 2943,-153.7269 2946.5001,-143.727 2939.5001,-143.7269"/>
</g>
<!-- LecturesPage -->
<g id="node35" class="node">
<title>LecturesPage</title>
<polygon fill="#ffffb3" stroke="#000000" points="3136.9049,-122 3045.0951,-122 3045.0951,-86 3136.9049,-86 3136.9049,-122"/>
<text text-anchor="middle" x="3091" y="-99.8" font-family="Times,serif" font-size="14.00" fill="#000000">LecturesPage</text>
</g>
<!-- LecturesPage&#45;&gt;LecturesPageModule -->
<g id="edge49" class="edge">
<title>LecturesPage&#45;&gt;LecturesPageModule</title>
<path fill="none" stroke="#000000" d="M3091,-122.2228C3091,-122.2228 3091,-143.7269 3091,-143.7269"/>
<polygon fill="#000000" stroke="#000000" points="3087.5001,-143.7269 3091,-153.7269 3094.5001,-143.727 3087.5001,-143.7269"/>
</g>
<!-- MultilinePipe -->
<g id="node37" class="node">
<title>MultilinePipe</title>
<polygon fill="#ffffb3" stroke="#000000" points="3978.5,-266 3885.5,-266 3885.5,-230 3978.5,-230 3978.5,-266"/>
<text text-anchor="middle" x="3932" y="-243.8" font-family="Times,serif" font-size="14.00" fill="#000000">MultilinePipe</text>
</g>
<!-- MultilinePipe&#45;&gt;PipeModule -->
<g id="edge54" class="edge">
<title>MultilinePipe&#45;&gt;PipeModule</title>
<path fill="none" stroke="#000000" d="M3978.5177,-248C4013.0296,-248 4054.1227,-248 4054.1227,-248 4054.1227,-248 4054.1227,-200.0109 4054.1227,-200.0109"/>
<polygon fill="#000000" stroke="#000000" points="4057.6228,-200.0109 4054.1227,-190.0109 4050.6228,-200.011 4057.6228,-200.0109"/>
</g>
<!-- SettingsPage -->
<g id="node39" class="node">
<title>SettingsPage</title>
<polygon fill="#ffffb3" stroke="#000000" points="4684.326,-122 4595.674,-122 4595.674,-86 4684.326,-86 4684.326,-122"/>
<text text-anchor="middle" x="4640" y="-99.8" font-family="Times,serif" font-size="14.00" fill="#000000">SettingsPage</text>
</g>
<!-- SettingsPage&#45;&gt;SettingsPageModule -->
<g id="edge57" class="edge">
<title>SettingsPage&#45;&gt;SettingsPageModule</title>
<path fill="none" stroke="#000000" d="M4640,-122.2228C4640,-122.2228 4640,-143.7269 4640,-143.7269"/>
<polygon fill="#000000" stroke="#000000" points="4636.5001,-143.7269 4640,-153.7269 4643.5001,-143.727 4636.5001,-143.7269"/>
</g>
</g>
</svg>
