<?xml version="1.0" encoding="UTF-8" standalone="no"?>
<!DOCTYPE svg PUBLIC "-//W3C//DTD SVG 1.1//EN"
 "http://www.w3.org/Graphics/SVG/1.1/DTD/svg11.dtd">
<!-- Generated by graphviz version 2.40.1 (20161225.0304)
 -->
<!-- Title: dependencies Pages: 1 -->
<svg width="2312pt" height="284pt"
 viewBox="0.00 0.00 2312.00 284.00" xmlns="http://www.w3.org/2000/svg" xmlns:xlink="http://www.w3.org/1999/xlink">
<g id="graph0" class="graph" transform="scale(1 1) rotate(0) translate(4 280)">
<title>dependencies</title>
<polygon fill="#ffffff" stroke="transparent" points="-4,4 -4,-280 2308,-280 2308,4 -4,4"/>
<text text-anchor="start" x="1131.0091" y="-42.4" font-family="sans-serif" font-weight="bold" font-size="14.00" fill="#000000">Legend</text>
<polygon fill="#ffffb3" stroke="transparent" points="918,-10 918,-30 938,-30 938,-10 918,-10"/>
<text text-anchor="start" x="941.629" y="-15.4" font-family="sans-serif" font-size="14.00" fill="#000000"> &#160;Declarations</text>
<polygon fill="#8dd3c7" stroke="transparent" points="1031,-10 1031,-30 1051,-30 1051,-10 1031,-10"/>
<text text-anchor="start" x="1054.7251" y="-15.4" font-family="sans-serif" font-size="14.00" fill="#000000"> &#160;Module</text>
<polygon fill="#80b1d3" stroke="transparent" points="1117,-10 1117,-30 1137,-30 1137,-10 1117,-10"/>
<text text-anchor="start" x="1140.7812" y="-15.4" font-family="sans-serif" font-size="14.00" fill="#000000"> &#160;Bootstrap</text>
<polygon fill="#fdb462" stroke="transparent" points="1214,-10 1214,-30 1234,-30 1234,-10 1214,-10"/>
<text text-anchor="start" x="1237.6732" y="-15.4" font-family="sans-serif" font-size="14.00" fill="#000000"> &#160;Providers</text>
<polygon fill="#fb8072" stroke="transparent" points="1310,-10 1310,-30 1330,-30 1330,-10 1310,-10"/>
<text text-anchor="start" x="1333.7258" y="-15.4" font-family="sans-serif" font-size="14.00" fill="#000000"> &#160;Exports</text>
<g id="clust1" class="cluster">
<title>cluster_AppModule</title>
<polygon fill="none" stroke="#000000" stroke-dasharray="1,5" points="8,-70 8,-268 2296,-268 2296,-70 8,-70"/>
</g>
<g id="clust2" class="cluster">
<title>cluster_AppModule_declarations</title>
<polygon fill="none" stroke="#000000" points="2166,-78 2166,-130 2288,-130 2288,-78 2166,-78"/>
</g>
<g id="clust4" class="cluster">
<title>cluster_AppModule_imports</title>
<polygon fill="none" stroke="#000000" points="1360,-78 1360,-130 2158,-130 2158,-78 1360,-78"/>
</g>
<g id="clust6" class="cluster">
<title>cluster_AppModule_bootstrap</title>
<polygon fill="none" stroke="#000000" points="1233,-208 1233,-260 1357,-260 1357,-208 1233,-208"/>
</g>
<g id="clust7" class="cluster">
<title>cluster_AppModule_providers</title>
<polygon fill="none" stroke="#000000" points="16,-78 16,-130 1352,-130 1352,-78 16,-78"/>
</g>
<!-- AppComponent -->
<g id="node1" class="node">
<title>AppComponent</title>
<polygon fill="#ffffb3" stroke="#000000" points="2279.9399,-122 2174.0601,-122 2174.0601,-86 2279.9399,-86 2279.9399,-122"/>
<text text-anchor="middle" x="2227" y="-99.8" font-family="Times,serif" font-size="14.00" fill="#000000">AppComponent</text>
</g>
<!-- AppModule -->
<g id="node2" class="node">
<title>AppModule</title>
<polygon fill="#8dd3c7" stroke="#000000" points="1336.6571,-187 1333.6571,-191 1312.6571,-191 1309.6571,-187 1253.3429,-187 1253.3429,-151 1336.6571,-151 1336.6571,-187"/>
<text text-anchor="middle" x="1295" y="-164.8" font-family="Times,serif" font-size="14.00" fill="#000000">AppModule</text>
</g>
<!-- AppComponent&#45;&gt;AppModule -->
<g id="edge1" class="edge">
<title>AppComponent&#45;&gt;AppModule</title>
<path fill="none" stroke="#000000" d="M2227,-122.0908C2227,-145.1328 2227,-182 2227,-182 2227,-182 1346.8567,-182 1346.8567,-182"/>
<polygon fill="#000000" stroke="#000000" points="1346.8567,-178.5001 1336.8567,-182 1346.8567,-185.5001 1346.8567,-178.5001"/>
</g>
<!-- AppComponent  -->
<g id="node8" class="node">
<title>AppComponent </title>
<polygon fill="#80b1d3" stroke="#000000" points="1349.439,-252 1240.561,-252 1240.561,-216 1349.439,-216 1349.439,-252"/>
<text text-anchor="middle" x="1295" y="-229.8" font-family="Times,serif" font-size="14.00" fill="#000000">AppComponent </text>
</g>
<!-- AppModule&#45;&gt;AppComponent  -->
<g id="edge7" class="edge">
<title>AppModule&#45;&gt;AppComponent </title>
<path fill="none" stroke="#000000" stroke-dasharray="1,5" d="M1295,-187.1061C1295,-187.1061 1295,-205.991 1295,-205.991"/>
<polygon fill="#000000" stroke="#000000" points="1291.5001,-205.9909 1295,-215.991 1298.5001,-205.991 1291.5001,-205.9909"/>
</g>
<!-- BrowserModule -->
<g id="node3" class="node">
<title>BrowserModule</title>
<polygon fill="#8dd3c7" stroke="#000000" points="2150.4734,-122 2147.4734,-126 2126.4734,-126 2123.4734,-122 2043.5266,-122 2043.5266,-86 2150.4734,-86 2150.4734,-122"/>
<text text-anchor="middle" x="2097" y="-99.8" font-family="Times,serif" font-size="14.00" fill="#000000">BrowserModule</text>
</g>
<!-- BrowserModule&#45;&gt;AppModule -->
<g id="edge2" class="edge">
<title>BrowserModule&#45;&gt;AppModule</title>
<path fill="none" stroke="#000000" d="M2097,-122.0449C2097,-143.6623 2097,-177 2097,-177 2097,-177 1346.7096,-177 1346.7096,-177"/>
<polygon fill="#000000" stroke="#000000" points="1346.7096,-173.5001 1336.7096,-177 1346.7096,-180.5001 1346.7096,-173.5001"/>
</g>
<!-- HttpClientModule -->
<g id="node4" class="node">
<title>HttpClientModule</title>
<polygon fill="#8dd3c7" stroke="#000000" points="2025.1611,-122 2022.1611,-126 2001.1611,-126 1998.1611,-122 1906.8389,-122 1906.8389,-86 2025.1611,-86 2025.1611,-122"/>
<text text-anchor="middle" x="1966" y="-99.8" font-family="Times,serif" font-size="14.00" fill="#000000">HttpClientModule</text>
</g>
<!-- HttpClientModule&#45;&gt;AppModule -->
<g id="edge3" class="edge">
<title>HttpClientModule&#45;&gt;AppModule</title>
<path fill="none" stroke="#000000" d="M1966,-122.2228C1966,-142.3652 1966,-172 1966,-172 1966,-172 1346.7205,-172 1346.7205,-172"/>
<polygon fill="#000000" stroke="#000000" points="1346.7206,-168.5001 1336.7205,-172 1346.7205,-175.5001 1346.7206,-168.5001"/>
</g>
<!-- IonicModule.forRoot() -->
<g id="node5" class="node">
<title>IonicModule.forRoot()</title>
<polygon fill="#8dd3c7" stroke="#000000" points="1888.1855,-122 1885.1855,-126 1864.1855,-126 1861.1855,-122 1743.8145,-122 1743.8145,-86 1888.1855,-86 1888.1855,-122"/>
<text text-anchor="middle" x="1816" y="-99.8" font-family="Times,serif" font-size="14.00" fill="#000000">IonicModule.forRoot()</text>
</g>
<!-- IonicModule.forRoot()&#45;&gt;AppModule -->
<g id="edge4" class="edge">
<title>IonicModule.forRoot()&#45;&gt;AppModule</title>
<path fill="none" stroke="#000000" d="M1816,-122.2222C1816,-140.8285 1816,-167 1816,-167 1816,-167 1346.7549,-167 1346.7549,-167"/>
<polygon fill="#000000" stroke="#000000" points="1346.755,-163.5001 1336.7549,-167 1346.7549,-170.5001 1346.755,-163.5001"/>
</g>
<!-- IonicStorageModule.forRoot(args) -->
<g id="node6" class="node">
<title>IonicStorageModule.forRoot(args)</title>
<polygon fill="#8dd3c7" stroke="#000000" points="1725.2681,-122 1722.2681,-126 1701.2681,-126 1698.2681,-122 1514.7319,-122 1514.7319,-86 1725.2681,-86 1725.2681,-122"/>
<text text-anchor="middle" x="1620" y="-99.8" font-family="Times,serif" font-size="14.00" fill="#000000">IonicStorageModule.forRoot(args)</text>
</g>
<!-- IonicStorageModule.forRoot(args)&#45;&gt;AppModule -->
<g id="edge5" class="edge">
<title>IonicStorageModule.forRoot(args)&#45;&gt;AppModule</title>
<path fill="none" stroke="#000000" d="M1620,-122.0336C1620,-139.0597 1620,-162 1620,-162 1620,-162 1346.8227,-162 1346.8227,-162"/>
<polygon fill="#000000" stroke="#000000" points="1346.8228,-158.5001 1336.8227,-162 1346.8227,-165.5001 1346.8228,-158.5001"/>
</g>
<!-- AppRoutingModule -->
<g id="node7" class="node">
<title>AppRoutingModule</title>
<polygon fill="#8dd3c7" stroke="#000000" points="1496.2744,-122 1493.2744,-126 1472.2744,-126 1469.2744,-122 1367.7256,-122 1367.7256,-86 1496.2744,-86 1496.2744,-122"/>
<text text-anchor="middle" x="1432" y="-99.8" font-family="Times,serif" font-size="14.00" fill="#000000">AppRoutingModule</text>
</g>
<!-- AppRoutingModule&#45;&gt;AppModule -->
<g id="edge6" class="edge">
<title>AppRoutingModule&#45;&gt;AppModule</title>
<path fill="none" stroke="#000000" d="M1432,-122.2396C1432,-137.5706 1432,-157 1432,-157 1432,-157 1346.8489,-157 1346.8489,-157"/>
<polygon fill="#000000" stroke="#000000" points="1346.849,-153.5001 1336.8489,-157 1346.8489,-160.5001 1346.849,-153.5001"/>
</g>
<!-- StatusBar -->
<g id="node9" class="node">
<title>StatusBar</title>
<ellipse fill="#fdb462" stroke="#000000" cx="1295" cy="-104" rx="48.6694" ry="18"/>
<text text-anchor="middle" x="1295" y="-99.8" font-family="Times,serif" font-size="14.00" fill="#000000">StatusBar</text>
</g>
<!-- StatusBar&#45;&gt;AppModule -->
<g id="edge8" class="edge">
<title>StatusBar&#45;&gt;AppModule</title>
<path fill="none" stroke="#000000" d="M1295,-122.1061C1295,-122.1061 1295,-140.991 1295,-140.991"/>
<polygon fill="#000000" stroke="#000000" points="1291.5001,-140.9909 1295,-150.991 1298.5001,-140.991 1291.5001,-140.9909"/>
</g>
<!-- SplashScreen -->
<g id="node10" class="node">
<title>SplashScreen</title>
<ellipse fill="#fdb462" stroke="#000000" cx="1165" cy="-104" rx="63.1189" ry="18"/>
<text text-anchor="middle" x="1165" y="-99.8" font-family="Times,serif" font-size="14.00" fill="#000000">SplashScreen</text>
</g>
<!-- SplashScreen&#45;&gt;AppModule -->
<g id="edge9" class="edge">
<title>SplashScreen&#45;&gt;AppModule</title>
<path fill="none" stroke="#000000" d="M1165,-122.2396C1165,-137.5706 1165,-157 1165,-157 1165,-157 1243.1516,-157 1243.1516,-157"/>
<polygon fill="#000000" stroke="#000000" points="1243.1516,-160.5001 1253.1516,-157 1243.1516,-153.5001 1243.1516,-160.5001"/>
</g>
<!-- HttpService -->
<g id="node11" class="node">
<title>HttpService</title>
<ellipse fill="#fdb462" stroke="#000000" cx="1027" cy="-104" rx="57.3185" ry="18"/>
<text text-anchor="middle" x="1027" y="-99.8" font-family="Times,serif" font-size="14.00" fill="#000000">HttpService</text>
</g>
<!-- HttpService&#45;&gt;AppModule -->
<g id="edge10" class="edge">
<title>HttpService&#45;&gt;AppModule</title>
<path fill="none" stroke="#000000" d="M1027,-122.0336C1027,-139.0597 1027,-162 1027,-162 1027,-162 1243.125,-162 1243.125,-162"/>
<polygon fill="#000000" stroke="#000000" points="1243.125,-165.5001 1253.125,-162 1243.125,-158.5001 1243.125,-165.5001"/>
</g>
<!-- BackgroundMode -->
<g id="node12" class="node">
<title>BackgroundMode</title>
<ellipse fill="#fdb462" stroke="#000000" cx="871" cy="-104" rx="80.5277" ry="18"/>
<text text-anchor="middle" x="871" y="-99.8" font-family="Times,serif" font-size="14.00" fill="#000000">BackgroundMode</text>
</g>
<!-- BackgroundMode&#45;&gt;AppModule -->
<g id="edge11" class="edge">
<title>BackgroundMode&#45;&gt;AppModule</title>
<path fill="none" stroke="#000000" d="M871,-122.2222C871,-140.8285 871,-167 871,-167 871,-167 1243.1849,-167 1243.1849,-167"/>
<polygon fill="#000000" stroke="#000000" points="1243.1849,-170.5001 1253.1849,-167 1243.1848,-163.5001 1243.1849,-170.5001"/>
</g>
<!-- StorageService -->
<g id="node13" class="node">
<title>StorageService</title>
<ellipse fill="#fdb462" stroke="#000000" cx="703" cy="-104" rx="69.4781" ry="18"/>
<text text-anchor="middle" x="703" y="-99.8" font-family="Times,serif" font-size="14.00" fill="#000000">StorageService</text>
</g>
<!-- StorageService&#45;&gt;AppModule -->
<g id="edge12" class="edge">
<title>StorageService&#45;&gt;AppModule</title>
<path fill="none" stroke="#000000" d="M703,-122.2228C703,-142.3652 703,-172 703,-172 703,-172 1242.8994,-172 1242.8994,-172"/>
<polygon fill="#000000" stroke="#000000" points="1242.8994,-175.5001 1252.8994,-172 1242.8994,-168.5001 1242.8994,-175.5001"/>
</g>
<!-- Utils -->
<g id="node14" class="node">
<title>Utils</title>
<ellipse fill="#fdb462" stroke="#000000" cx="586" cy="-104" rx="29.63" ry="18"/>
<text text-anchor="middle" x="586" y="-99.8" font-family="Times,serif" font-size="14.00" fill="#000000">Utils</text>
</g>
<!-- Utils&#45;&gt;AppModule -->
<g id="edge13" class="edge">
<title>Utils&#45;&gt;AppModule</title>
<path fill="none" stroke="#000000" d="M586,-122.0449C586,-143.6623 586,-177 586,-177 586,-177 1243.2958,-177 1243.2958,-177"/>
<polygon fill="#000000" stroke="#000000" points="1243.2958,-180.5001 1253.2958,-177 1243.2957,-173.5001 1243.2958,-180.5001"/>
</g>
<!-- { provide: RouteReuseStrategy, useClass: IonicRouteStrategy } -->
<g id="node15" class="node">
<title>{ provide: RouteReuseStrategy, useClass: IonicRouteStrategy }</title>
<ellipse fill="#fdb462" stroke="#000000" cx="281" cy="-104" rx="257.2723" ry="18"/>
<text text-anchor="middle" x="281" y="-99.8" font-family="Times,serif" font-size="14.00" fill="#000000">{ provide: RouteReuseStrategy, useClass: IonicRouteStrategy }</text>
</g>
<!-- { provide: RouteReuseStrategy, useClass: IonicRouteStrategy }&#45;&gt;AppModule -->
<g id="edge14" class="edge">
<title>{ provide: RouteReuseStrategy, useClass: IonicRouteStrategy }&#45;&gt;AppModule</title>
<path fill="none" stroke="#000000" d="M281,-122.0908C281,-145.1328 281,-182 281,-182 281,-182 1243.0407,-182 1243.0407,-182"/>
<polygon fill="#000000" stroke="#000000" points="1243.0407,-185.5001 1253.0407,-182 1243.0406,-178.5001 1243.0407,-185.5001"/>
</g>
</g>
</svg>
