<?xml version="1.0" encoding="UTF-8" standalone="no"?>
<!DOCTYPE svg PUBLIC "-//W3C//DTD SVG 1.1//EN"
 "http://www.w3.org/Graphics/SVG/1.1/DTD/svg11.dtd">
<!-- Generated by graphviz version 2.40.1 (20161225.0304)
 -->
<!-- Title: dependencies Pages: 1 -->
<svg width="886pt" height="211pt"
 viewBox="0.00 0.00 886.00 211.00" xmlns="http://www.w3.org/2000/svg" xmlns:xlink="http://www.w3.org/1999/xlink">
<g id="graph0" class="graph" transform="scale(1 1) rotate(0) translate(4 207)">
<title>dependencies</title>
<polygon fill="#ffffff" stroke="transparent" points="-4,4 -4,-207 882,-207 882,4 -4,4"/>
<text text-anchor="start" x="418.0091" y="-42.4" font-family="sans-serif" font-weight="bold" font-size="14.00" fill="#000000">Legend</text>
<polygon fill="#ffffb3" stroke="transparent" points="205,-10 205,-30 225,-30 225,-10 205,-10"/>
<text text-anchor="start" x="228.629" y="-15.4" font-family="sans-serif" font-size="14.00" fill="#000000"> &#160;Declarations</text>
<polygon fill="#8dd3c7" stroke="transparent" points="318,-10 318,-30 338,-30 338,-10 318,-10"/>
<text text-anchor="start" x="341.7251" y="-15.4" font-family="sans-serif" font-size="14.00" fill="#000000"> &#160;Module</text>
<polygon fill="#80b1d3" stroke="transparent" points="404,-10 404,-30 424,-30 424,-10 404,-10"/>
<text text-anchor="start" x="427.7812" y="-15.4" font-family="sans-serif" font-size="14.00" fill="#000000"> &#160;Bootstrap</text>
<polygon fill="#fdb462" stroke="transparent" points="501,-10 501,-30 521,-30 521,-10 501,-10"/>
<text text-anchor="start" x="524.6732" y="-15.4" font-family="sans-serif" font-size="14.00" fill="#000000"> &#160;Providers</text>
<polygon fill="#fb8072" stroke="transparent" points="597,-10 597,-30 617,-30 617,-10 597,-10"/>
<text text-anchor="start" x="620.7258" y="-15.4" font-family="sans-serif" font-size="14.00" fill="#000000"> &#160;Exports</text>
<g id="clust1" class="cluster">
<title>cluster_EventDetailsPageModule</title>
<polygon fill="none" stroke="#000000" stroke-dasharray="1,5" points="8,-70 8,-195 870,-195 870,-70 8,-70"/>
</g>
<g id="clust2" class="cluster">
<title>cluster_EventDetailsPageModule_declarations</title>
<polygon fill="none" stroke="#000000" points="730,-78 730,-130 862,-130 862,-78 730,-78"/>
</g>
<g id="clust4" class="cluster">
<title>cluster_EventDetailsPageModule_imports</title>
<polygon fill="none" stroke="#000000" points="16,-78 16,-130 722,-130 722,-78 16,-78"/>
</g>
<!-- EventDetailsPage -->
<g id="node1" class="node">
<title>EventDetailsPage</title>
<polygon fill="#ffffb3" stroke="#000000" points="853.5228,-122 738.4772,-122 738.4772,-86 853.5228,-86 853.5228,-122"/>
<text text-anchor="middle" x="796" y="-99.8" font-family="Times,serif" font-size="14.00" fill="#000000">EventDetailsPage</text>
</g>
<!-- EventDetailsPageModule -->
<g id="node2" class="node">
<title>EventDetailsPageModule</title>
<polygon fill="#8dd3c7" stroke="#000000" points="547.5716,-187 544.5716,-191 523.5716,-191 520.5716,-187 388.4284,-187 388.4284,-151 547.5716,-151 547.5716,-187"/>
<text text-anchor="middle" x="468" y="-164.8" font-family="Times,serif" font-size="14.00" fill="#000000">EventDetailsPageModule</text>
</g>
<!-- EventDetailsPage&#45;&gt;EventDetailsPageModule -->
<g id="edge1" class="edge">
<title>EventDetailsPage&#45;&gt;EventDetailsPageModule</title>
<path fill="none" stroke="#000000" d="M796,-122.2843C796,-143.3211 796,-175 796,-175 796,-175 557.8184,-175 557.8184,-175"/>
<polygon fill="#000000" stroke="#000000" points="557.8184,-171.5001 547.8184,-175 557.8184,-178.5001 557.8184,-171.5001"/>
</g>
<!-- CommonModule -->
<g id="node3" class="node">
<title>CommonModule</title>
<polygon fill="#8dd3c7" stroke="#000000" points="713.6681,-122 710.6681,-126 689.6681,-126 686.6681,-122 602.3319,-122 602.3319,-86 713.6681,-86 713.6681,-122"/>
<text text-anchor="middle" x="658" y="-99.8" font-family="Times,serif" font-size="14.00" fill="#000000">CommonModule</text>
</g>
<!-- CommonModule&#45;&gt;EventDetailsPageModule -->
<g id="edge2" class="edge">
<title>CommonModule&#45;&gt;EventDetailsPageModule</title>
<path fill="none" stroke="#000000" d="M658,-122.0225C658,-139.3734 658,-163 658,-163 658,-163 557.7513,-163 557.7513,-163"/>
<polygon fill="#000000" stroke="#000000" points="557.7513,-159.5001 547.7513,-163 557.7512,-166.5001 557.7513,-159.5001"/>
</g>
<!-- FormsModule -->
<g id="node4" class="node">
<title>FormsModule</title>
<polygon fill="#8dd3c7" stroke="#000000" points="584.8288,-122 581.8288,-126 560.8288,-126 557.8288,-122 489.1712,-122 489.1712,-86 584.8288,-86 584.8288,-122"/>
<text text-anchor="middle" x="537" y="-99.8" font-family="Times,serif" font-size="14.00" fill="#000000">FormsModule</text>
</g>
<!-- FormsModule&#45;&gt;EventDetailsPageModule -->
<g id="edge3" class="edge">
<title>FormsModule&#45;&gt;EventDetailsPageModule</title>
<path fill="none" stroke="#000000" d="M518.4359,-122.1061C518.4359,-122.1061 518.4359,-140.991 518.4359,-140.991"/>
<polygon fill="#000000" stroke="#000000" points="514.9359,-140.9909 518.4359,-150.991 521.9359,-140.991 514.9359,-140.9909"/>
</g>
<!-- IonicModule.forRoot() -->
<g id="node5" class="node">
<title>IonicModule.forRoot()</title>
<polygon fill="#8dd3c7" stroke="#000000" points="471.1855,-122 468.1855,-126 447.1855,-126 444.1855,-122 326.8145,-122 326.8145,-86 471.1855,-86 471.1855,-122"/>
<text text-anchor="middle" x="399" y="-99.8" font-family="Times,serif" font-size="14.00" fill="#000000">IonicModule.forRoot()</text>
</g>
<!-- IonicModule.forRoot()&#45;&gt;EventDetailsPageModule -->
<g id="edge4" class="edge">
<title>IonicModule.forRoot()&#45;&gt;EventDetailsPageModule</title>
<path fill="none" stroke="#000000" d="M429.9034,-122.1061C429.9034,-122.1061 429.9034,-140.991 429.9034,-140.991"/>
<polygon fill="#000000" stroke="#000000" points="426.4035,-140.9909 429.9034,-150.991 433.4035,-140.991 426.4035,-140.9909"/>
</g>
<!-- PipeModule -->
<g id="node6" class="node">
<title>PipeModule</title>
<polygon fill="#8dd3c7" stroke="#000000" points="308.4387,-122 305.4387,-126 284.4387,-126 281.4387,-122 223.5613,-122 223.5613,-86 308.4387,-86 308.4387,-122"/>
<text text-anchor="middle" x="266" y="-99.8" font-family="Times,serif" font-size="14.00" fill="#000000">PipeModule</text>
</g>
<!-- PipeModule&#45;&gt;EventDetailsPageModule -->
<g id="edge5" class="edge">
<title>PipeModule&#45;&gt;EventDetailsPageModule</title>
<path fill="none" stroke="#000000" d="M266,-122.0225C266,-139.3734 266,-163 266,-163 266,-163 378.4542,-163 378.4542,-163"/>
<polygon fill="#000000" stroke="#000000" points="378.4543,-166.5001 388.4542,-163 378.4542,-159.5001 378.4543,-166.5001"/>
</g>
<!-- RouterModule.forChild(args) -->
<g id="node7" class="node">
<title>RouterModule.forChild(args)</title>
<polygon fill="#8dd3c7" stroke="#000000" points="205.7323,-122 202.7323,-126 181.7323,-126 178.7323,-122 24.2677,-122 24.2677,-86 205.7323,-86 205.7323,-122"/>
<text text-anchor="middle" x="115" y="-99.8" font-family="Times,serif" font-size="14.00" fill="#000000">RouterModule.forChild(args)</text>
</g>
<!-- RouterModule.forChild(args)&#45;&gt;EventDetailsPageModule -->
<g id="edge6" class="edge">
<title>RouterModule.forChild(args)&#45;&gt;EventDetailsPageModule</title>
<path fill="none" stroke="#000000" d="M115,-122.2843C115,-143.3211 115,-175 115,-175 115,-175 378.3398,-175 378.3398,-175"/>
<polygon fill="#000000" stroke="#000000" points="378.3398,-178.5001 388.3398,-175 378.3397,-171.5001 378.3398,-178.5001"/>
</g>
</g>
</svg>
